<?xml version="1.0" encoding="UTF-8"?>
<svg xmlns="http://www.w3.org/2000/svg" xmlns:xlink="http://www.w3.org/1999/xlink" width="32px" height="23px" viewBox="0 0 32 23" version="1.1">
<g id="surface1">
<path style=" stroke:none;fill-rule:nonzero;fill:rgb(85.882354%,13.725491%,14.117648%);fill-opacity:1;" d="M 13.292969 14.496094 C 11.640625 8.691406 12.046875 5.851562 16.914062 3.285156 "/>
<path style=" stroke:none;fill-rule:nonzero;fill:rgb(0%,0%,0%);fill-opacity:1;" d="M 13.609375 14.410156 C 13.347656 13.488281 13.109375 12.558594 12.941406 11.617188 C 12.898438 11.382812 12.863281 11.152344 12.832031 10.921875 C 12.835938 10.949219 12.839844 10.980469 12.84375 11.007812 C 12.757812 10.359375 12.714844 9.703125 12.753906 9.050781 C 12.765625 8.882812 12.78125 8.71875 12.804688 8.550781 C 12.800781 8.578125 12.796875 8.609375 12.792969 8.640625 C 12.847656 8.226562 12.941406 7.816406 13.082031 7.425781 C 13.097656 7.375 13.117188 7.328125 13.136719 7.28125 C 13.144531 7.257812 13.152344 7.238281 13.160156 7.214844 C 13.167969 7.203125 13.1875 7.152344 13.160156 7.214844 C 13.132812 7.28125 13.160156 7.222656 13.164062 7.207031 C 13.203125 7.113281 13.246094 7.023438 13.292969 6.933594 C 13.382812 6.746094 13.484375 6.570312 13.597656 6.394531 C 13.65625 6.308594 13.714844 6.222656 13.773438 6.140625 C 13.789062 6.117188 13.804688 6.097656 13.820312 6.078125 C 13.855469 6.03125 13.769531 6.144531 13.800781 6.105469 C 13.808594 6.09375 13.820312 6.082031 13.828125 6.070312 C 13.859375 6.027344 13.894531 5.984375 13.929688 5.941406 C 14.070312 5.769531 14.21875 5.605469 14.375 5.449219 C 14.542969 5.285156 14.71875 5.128906 14.898438 4.976562 C 14.945312 4.9375 14.988281 4.902344 15.035156 4.863281 C 15.046875 4.855469 15.058594 4.84375 15.070312 4.835938 C 15.078125 4.832031 15.085938 4.824219 15.09375 4.820312 C 15.101562 4.8125 15.023438 4.871094 15.050781 4.851562 C 15.078125 4.832031 15.101562 4.8125 15.128906 4.792969 C 15.230469 4.714844 15.335938 4.636719 15.441406 4.5625 C 15.898438 4.238281 16.378906 3.945312 16.871094 3.679688 C 16.941406 3.640625 17.007812 3.605469 17.078125 3.570312 C 17.230469 3.488281 17.285156 3.261719 17.195312 3.117188 C 17.09375 2.960938 16.910156 2.910156 16.75 2.996094 C 16.304688 3.234375 15.867188 3.484375 15.445312 3.761719 C 15.054688 4.019531 14.675781 4.300781 14.324219 4.605469 C 14.023438 4.863281 13.742188 5.144531 13.492188 5.449219 C 13.242188 5.746094 13.015625 6.066406 12.828125 6.410156 C 12.648438 6.742188 12.496094 7.09375 12.382812 7.457031 C 12.265625 7.832031 12.195312 8.214844 12.144531 8.605469 C 12.097656 8.996094 12.082031 9.390625 12.09375 9.78125 C 12.105469 10.238281 12.152344 10.695312 12.210938 11.152344 C 12.277344 11.632812 12.367188 12.113281 12.472656 12.589844 C 12.585938 13.121094 12.722656 13.648438 12.863281 14.171875 C 12.902344 14.3125 12.941406 14.449219 12.980469 14.585938 C 13.027344 14.753906 13.210938 14.871094 13.382812 14.816406 C 13.546875 14.761719 13.660156 14.589844 13.609375 14.410156 "/>
<path style=" stroke:none;fill-rule:nonzero;fill:rgb(98.431373%,69.01961%,23.137255%);fill-opacity:1;" d="M 13.292969 14.496094 C 17.332031 10.777344 19.691406 7.839844 16.917969 3.289062 "/>
<path style=" stroke:none;fill-rule:nonzero;fill:rgb(0%,0%,0%);fill-opacity:1;" d="M 13.523438 14.730469 C 14.265625 14.046875 15 13.351562 15.683594 12.609375 C 16.289062 11.957031 16.863281 11.261719 17.34375 10.503906 C 17.757812 9.84375 18.097656 9.121094 18.285156 8.359375 C 18.472656 7.578125 18.488281 6.777344 18.351562 5.988281 C 18.195312 5.089844 17.835938 4.234375 17.390625 3.449219 C 17.328125 3.339844 17.265625 3.230469 17.199219 3.121094 C 17.109375 2.972656 16.902344 2.902344 16.753906 3 C 16.605469 3.097656 16.539062 3.296875 16.636719 3.453125 C 16.898438 3.886719 17.132812 4.335938 17.328125 4.804688 C 17.316406 4.777344 17.308594 4.75 17.296875 4.726562 C 17.515625 5.257812 17.679688 5.816406 17.757812 6.394531 C 17.753906 6.363281 17.75 6.335938 17.746094 6.304688 C 17.808594 6.769531 17.808594 7.242188 17.75 7.707031 C 17.753906 7.679688 17.757812 7.648438 17.761719 7.621094 C 17.695312 8.121094 17.554688 8.605469 17.363281 9.070312 C 17.375 9.046875 17.386719 9.019531 17.398438 8.992188 C 17.246094 9.351562 17.066406 9.699219 16.867188 10.03125 C 16.761719 10.203125 16.652344 10.371094 16.535156 10.539062 C 16.476562 10.625 16.417969 10.707031 16.355469 10.792969 C 16.324219 10.832031 16.292969 10.875 16.261719 10.917969 C 16.253906 10.925781 16.25 10.933594 16.242188 10.941406 C 16.304688 10.859375 16.269531 10.90625 16.253906 10.925781 C 16.238281 10.949219 16.222656 10.96875 16.207031 10.988281 C 15.636719 11.726562 15 12.402344 14.339844 13.050781 C 13.921875 13.464844 13.496094 13.867188 13.0625 14.261719 C 12.9375 14.378906 12.9375 14.613281 13.0625 14.730469 C 13.199219 14.859375 13.390625 14.855469 13.523438 14.730469 "/>
<path style=" stroke:none;fill-rule:nonzero;fill:rgb(100%,100%,0%);fill-opacity:1;" d="M 14.074219 14.921875 C 16.703125 8.910156 19.03125 6.84375 25.761719 7.585938 "/>
<path style=" stroke:none;fill-rule:nonzero;fill:rgb(0%,0%,0%);fill-opacity:1;" d="M 14.355469 15.089844 C 14.714844 14.273438 15.09375 13.464844 15.519531 12.679688 C 15.878906 12.011719 16.277344 11.367188 16.730469 10.761719 C 16.65625 10.859375 16.707031 10.792969 16.722656 10.769531 C 16.738281 10.753906 16.75 10.734375 16.765625 10.71875 C 16.792969 10.683594 16.820312 10.648438 16.847656 10.613281 C 16.902344 10.542969 16.957031 10.476562 17.011719 10.410156 C 17.117188 10.285156 17.230469 10.164062 17.339844 10.042969 C 17.5625 9.808594 17.796875 9.585938 18.042969 9.378906 C 18.070312 9.355469 18.101562 9.332031 18.128906 9.308594 C 18.144531 9.296875 18.160156 9.285156 18.175781 9.269531 C 18.207031 9.246094 18.101562 9.328125 18.140625 9.300781 C 18.152344 9.292969 18.164062 9.285156 18.171875 9.273438 C 18.234375 9.226562 18.300781 9.179688 18.363281 9.132812 C 18.488281 9.042969 18.617188 8.957031 18.746094 8.875 C 19.015625 8.710938 19.292969 8.566406 19.578125 8.4375 C 19.597656 8.429688 19.613281 8.421875 19.628906 8.414062 C 19.515625 8.464844 19.585938 8.433594 19.613281 8.421875 C 19.652344 8.40625 19.691406 8.390625 19.730469 8.375 C 19.808594 8.34375 19.886719 8.316406 19.964844 8.289062 C 20.117188 8.230469 20.269531 8.183594 20.425781 8.136719 C 20.757812 8.042969 21.09375 7.96875 21.433594 7.914062 C 21.523438 7.898438 21.609375 7.886719 21.699219 7.871094 C 21.667969 7.875 21.640625 7.878906 21.613281 7.882812 C 22.097656 7.820312 22.585938 7.785156 23.074219 7.777344 C 23.625 7.765625 24.175781 7.785156 24.726562 7.824219 C 25.074219 7.847656 25.417969 7.882812 25.761719 7.917969 C 25.839844 7.925781 25.941406 7.875 25.992188 7.820312 C 26.050781 7.765625 26.09375 7.671875 26.089844 7.585938 C 26.085938 7.503906 26.058594 7.414062 25.992188 7.355469 C 25.925781 7.289062 25.851562 7.265625 25.761719 7.257812 C 25.148438 7.1875 24.527344 7.140625 23.910156 7.121094 C 23.363281 7.101562 22.820312 7.109375 22.273438 7.152344 C 21.773438 7.191406 21.269531 7.257812 20.773438 7.367188 C 20.347656 7.460938 19.925781 7.585938 19.519531 7.75 C 19.113281 7.917969 18.71875 8.113281 18.34375 8.351562 C 17.972656 8.589844 17.621094 8.863281 17.296875 9.164062 C 16.972656 9.457031 16.675781 9.78125 16.402344 10.125 C 16.089844 10.515625 15.800781 10.925781 15.535156 11.347656 C 15.253906 11.796875 14.992188 12.261719 14.75 12.734375 C 14.476562 13.257812 14.226562 13.792969 13.984375 14.332031 C 13.917969 14.472656 13.855469 14.613281 13.796875 14.757812 C 13.757812 14.839844 13.738281 14.917969 13.761719 15.011719 C 13.78125 15.089844 13.839844 15.171875 13.910156 15.210938 C 14.054688 15.285156 14.285156 15.257812 14.355469 15.089844 "/>
<path style=" stroke:none;fill-rule:nonzero;fill:rgb(22.352941%,70.980394%,29.019609%);fill-opacity:1;" d="M 14.269531 14.785156 C 21.433594 16.003906 24.53125 14.9375 25.59375 7.757812 "/>
<path style=" stroke:none;fill-rule:nonzero;fill:rgb(0%,0%,0%);fill-opacity:1;" d="M 14.183594 15.105469 C 14.871094 15.222656 15.5625 15.324219 16.253906 15.402344 C 16.839844 15.472656 17.429688 15.519531 18.023438 15.539062 C 18.542969 15.554688 19.0625 15.546875 19.578125 15.5 C 20.0625 15.457031 20.546875 15.382812 21.015625 15.257812 C 21.441406 15.144531 21.859375 14.984375 22.253906 14.777344 C 22.632812 14.578125 22.988281 14.328125 23.3125 14.039062 C 23.644531 13.742188 23.929688 13.402344 24.1875 13.035156 C 24.453125 12.648438 24.675781 12.234375 24.863281 11.804688 C 25.089844 11.289062 25.273438 10.753906 25.425781 10.207031 C 25.59375 9.597656 25.722656 8.976562 25.828125 8.355469 C 25.855469 8.183594 25.882812 8.015625 25.910156 7.847656 C 25.921875 7.753906 25.925781 7.675781 25.875 7.589844 C 25.835938 7.523438 25.757812 7.457031 25.679688 7.441406 C 25.597656 7.421875 25.503906 7.425781 25.429688 7.472656 C 25.363281 7.515625 25.292969 7.585938 25.28125 7.671875 C 25.152344 8.523438 24.988281 9.375 24.75 10.207031 C 24.644531 10.554688 24.53125 10.902344 24.394531 11.242188 C 24.378906 11.28125 24.363281 11.320312 24.347656 11.359375 C 24.328125 11.40625 24.382812 11.273438 24.363281 11.324219 C 24.359375 11.328125 24.359375 11.335938 24.355469 11.34375 C 24.347656 11.367188 24.335938 11.386719 24.328125 11.410156 C 24.292969 11.484375 24.261719 11.5625 24.226562 11.636719 C 24.15625 11.785156 24.085938 11.929688 24.007812 12.074219 C 23.863281 12.339844 23.703125 12.597656 23.519531 12.84375 C 23.511719 12.855469 23.5 12.867188 23.492188 12.882812 C 23.449219 12.9375 23.550781 12.804688 23.503906 12.867188 C 23.480469 12.894531 23.457031 12.925781 23.433594 12.957031 C 23.390625 13.011719 23.34375 13.066406 23.296875 13.121094 C 23.203125 13.226562 23.109375 13.328125 23.007812 13.425781 C 22.910156 13.519531 22.808594 13.609375 22.707031 13.695312 C 22.679688 13.71875 22.65625 13.738281 22.628906 13.757812 C 22.59375 13.789062 22.703125 13.699219 22.667969 13.730469 C 22.660156 13.734375 22.65625 13.738281 22.652344 13.742188 C 22.636719 13.753906 22.621094 13.761719 22.605469 13.773438 C 22.554688 13.816406 22.496094 13.855469 22.441406 13.894531 C 22.21875 14.050781 21.980469 14.183594 21.730469 14.300781 C 21.703125 14.316406 21.671875 14.328125 21.640625 14.34375 C 21.625 14.351562 21.609375 14.355469 21.59375 14.363281 C 21.582031 14.371094 21.546875 14.382812 21.605469 14.359375 C 21.671875 14.332031 21.625 14.351562 21.609375 14.355469 C 21.546875 14.382812 21.480469 14.410156 21.414062 14.433594 C 21.28125 14.484375 21.144531 14.53125 21.007812 14.570312 C 20.722656 14.65625 20.429688 14.722656 20.136719 14.769531 C 20.058594 14.78125 19.984375 14.792969 19.910156 14.804688 C 19.9375 14.800781 19.964844 14.796875 19.996094 14.792969 C 19.484375 14.859375 18.96875 14.886719 18.453125 14.886719 C 17.863281 14.882812 17.273438 14.84375 16.6875 14.789062 C 16.320312 14.75 15.957031 14.707031 15.59375 14.65625 C 15.621094 14.660156 15.652344 14.664062 15.679688 14.667969 C 15.238281 14.609375 14.796875 14.539062 14.355469 14.464844 C 14.269531 14.449219 14.1875 14.449219 14.105469 14.5 C 14.039062 14.539062 13.972656 14.617188 13.957031 14.695312 C 13.921875 14.855469 14.003906 15.074219 14.183594 15.105469 "/>
<path style=" stroke:none;fill-rule:nonzero;fill:rgb(37.64706%,21.960784%,7.450981%);fill-opacity:1;" d="M 7.652344 12.679688 C 8.109375 12.855469 8.5625 13.039062 9.011719 13.234375 C 8.96875 13.214844 8.921875 13.195312 8.878906 13.175781 C 9.550781 13.464844 10.214844 13.769531 10.871094 14.09375 C 11.53125 14.421875 12.183594 14.765625 12.828125 15.125 C 13.472656 15.484375 14.109375 15.863281 14.734375 16.257812 C 15.367188 16.652344 15.988281 17.066406 16.601562 17.496094 C 17.222656 17.929688 17.832031 18.382812 18.433594 18.847656 C 18.503906 18.90625 18.578125 18.960938 18.652344 19.019531 C 18.613281 18.988281 18.578125 18.960938 18.539062 18.929688 C 18.75 19.09375 18.957031 19.261719 19.164062 19.429688 C 19.214844 19.484375 19.273438 19.523438 19.34375 19.546875 C 19.410156 19.582031 19.480469 19.597656 19.558594 19.597656 C 19.695312 19.597656 19.859375 19.535156 19.953125 19.429688 C 20.050781 19.320312 20.125 19.179688 20.117188 19.027344 C 20.109375 18.886719 20.066406 18.71875 19.953125 18.628906 C 19.210938 18.023438 18.453125 17.4375 17.675781 16.878906 C 16.945312 16.351562 16.199219 15.847656 15.441406 15.367188 C 14.691406 14.890625 13.925781 14.4375 13.144531 14.007812 C 12.375 13.582031 11.585938 13.179688 10.789062 12.804688 C 9.957031 12.410156 9.113281 12.042969 8.257812 11.703125 C 8.15625 11.664062 8.050781 11.625 7.949219 11.582031 C 7.820312 11.535156 7.632812 11.574219 7.519531 11.640625 C 7.402344 11.710938 7.292969 11.84375 7.261719 11.980469 C 7.230469 12.125 7.238281 12.289062 7.320312 12.417969 L 7.40625 12.53125 C 7.476562 12.601562 7.558594 12.652344 7.652344 12.679688 "/>
</g>
</svg>
