<svg xmlns="http://www.w3.org/2000/svg" xmlns:xlink="http://www.w3.org/1999/xlink" xmlns:inkscape="http://www.inkscape.org/namespaces/inkscape" version="1.1" width="1031.81" height="728.504" viewBox="0 0 1031.81 728.504">
<defs>
<clipPath id="clip_0">
<path transform="matrix(1,0,0,-1,0,728.504)" d="M0 728.504H1031.811V0H0Z"/>
</clipPath>
</defs>
<g inkscape:groupmode="layer" inkscape:label="Layer 1">
<g clip-path="url(#clip_0)">
<path transform="matrix(1,0,0,-1,428.7473,459.51643)" d="M0 0C-53.379 184-40.281 274.024 116.702 355.443" fill="#db2324"/>
<path transform="matrix(1,0,0,-1,438.8723,456.72514)" d="M0 0C-8.459 29.18-16.137 58.654-21.528 88.57-22.846 95.884-24.017 103.224-25.011 110.589-24.886 109.658-24.761 108.728-24.636 107.797-27.39 128.336-28.785 149.138-27.502 169.848-27.173 175.15-26.663 180.439-25.959 185.705-26.084 184.775-26.209 183.844-26.334 182.914-24.56 196.026-21.536 208.969-16.998 221.406-16.439 222.94-15.857 224.466-15.252 225.983-14.982 226.662-14.707 227.34-14.427 228.015-14.244 228.46-13.585 230.023-14.435 228.006-15.316 225.917-14.504 227.832-14.299 228.303-13.018 231.246-11.652 234.153-10.202 237.017-7.245 242.86-3.942 248.526-.33 253.988 1.497 256.752 3.402 259.463 5.38 262.121 5.871 262.781 6.369 263.437 6.867 264.092 7.966 265.539 5.254 262.026 6.198 263.229 6.491 263.601 6.782 263.975 7.075 264.347 8.148 265.704 9.239 267.046 10.348 268.373 14.887 273.808 19.719 278.995 24.778 283.949 30.15 289.21 35.778 294.207 41.593 298.972 43.069 300.181 44.558 301.376 46.058 302.556 46.437 302.854 46.816 303.152 47.197 303.448 47.414 303.617 47.64 303.781 47.852 303.957 48.098 304.161 45.694 302.298 46.55 302.951 47.382 303.585 48.212 304.223 49.047 304.852 52.355 307.344 55.711 309.772 59.108 312.14 73.878 322.437 89.4 331.631 105.275 340.111 107.468 341.283 109.669 342.44 111.876 343.586 116.76 346.121 118.61 353.35 115.643 357.952 112.435 362.927 106.5 364.43 101.277 361.719 86.911 354.26 72.808 346.271 59.219 337.467 46.632 329.313 34.47 320.436 23.034 310.727 13.409 302.556 4.344 293.701-3.806 284.05-11.809 274.574-19.098 264.446-25.148 253.608-31.02 243.089-35.83 231.894-39.494 220.419-43.29 208.526-45.633 196.309-47.189 183.937-48.742 171.6-49.202 159.14-48.885 146.716-48.514 132.165-47.022 117.694-45.026 103.285-42.906 87.975-40.018 72.777-36.671 57.691-32.933 40.841-28.619 24.123-23.977 7.502-22.757 3.134-21.513-1.227-20.25-5.583-18.722-10.854-12.78-14.679-7.334-12.916-1.979-11.183 1.638-5.651 0 0"/>
<path transform="matrix(1,0,0,-1,428.7473,459.51643)" d="M0 0C130.154 117.921 206.248 210.982 116.813 355.31" fill="#fbb03b"/>
<path transform="matrix(1,0,0,-1,436.1719,466.94105)" d="M0 0C23.923 21.68 47.546 43.765 69.684 67.283 89.2 88.014 107.722 109.988 123.111 133.993 136.522 154.913 147.532 177.818 153.481 202.022 159.555 226.734 160.07 252.169 155.643 277.187 150.618 305.582 138.99 332.672 124.698 357.576 122.677 361.098 120.591 364.581 118.455 368.034 115.567 372.703 108.938 374.927 104.089 371.801 99.407 368.782 97.231 362.432 100.322 357.435 108.795 343.736 116.422 329.507 122.695 314.663 122.342 315.499 121.989 316.335 121.636 317.171 128.751 300.236 134.049 282.531 136.531 264.305 136.406 265.236 136.281 266.166 136.156 267.097 138.128 252.337 138.203 237.388 136.24 222.624 136.365 223.555 136.49 224.485 136.615 225.416 134.465 209.564 130.005 194.137 123.814 179.403 124.167 180.239 124.519 181.075 124.872 181.911 120.054 170.512 114.253 159.553 107.763 149.022 104.391 143.55 100.835 138.192 97.135 132.937 95.232 130.235 93.291 127.56 91.315 124.91 90.313 123.566 89.302 122.229 88.283 120.898 88.078 120.63 87.87 120.365 87.667 120.096 89.707 122.792 88.521 121.199 88.067 120.616 87.546 119.945 87.023 119.276 86.497 118.609 68.158 95.314 47.542 73.876 26.286 53.248 12.824 40.184-.95 27.445-14.849 14.849-18.931 11.151-18.888 3.707-14.849 0-10.488-4.004-4.354-3.945 0 0"/>
<path transform="matrix(1,0,0,-1,453.9553,473.0103)" d="M0 0C84.697 190.578 159.806 256.118 376.892 232.509" fill="#ffff00"/>
<path transform="matrix(1,0,0,-1,463.0218,478.30995)" d="M0 0C11.526 25.923 23.714 51.588 37.422 76.436 49.068 97.547 61.873 118.01 76.525 137.173 74.162 134.083 75.76 136.184 76.331 136.914 76.773 137.48 77.217 138.044 77.662 138.607 78.548 139.726 79.441 140.84 80.341 141.948 82.079 144.087 83.845 146.204 85.638 148.296 89.066 152.297 92.598 156.209 96.24 160.016 103.358 167.458 110.9 174.498 118.881 181.008 119.802 181.76 120.729 182.504 121.662 183.241 122.174 183.646 122.689 184.046 123.203 184.448 124.149 185.189 120.802 182.608 122.063 183.567 122.393 183.818 122.721 184.071 123.051 184.321 125.074 185.856 127.123 187.358 129.197 188.823 133.235 191.676 137.369 194.394 141.592 196.967 150.198 202.211 159.171 206.846 168.416 210.854 168.967 211.093 169.522 211.324 170.073 211.564 166.386 209.957 168.681 210.978 169.564 211.343 170.793 211.85 172.027 212.347 173.265 212.833 175.761 213.813 178.275 214.749 180.804 215.643 185.726 217.383 190.706 218.96 195.728 220.385 206.403 223.414 217.268 225.751 228.221 227.519 231.059 227.977 233.904 228.395 236.753 228.781 235.823 228.656 234.893 228.531 233.962 228.406 249.578 230.501 265.32 231.542 281.07 231.832 298.876 232.16 316.693 231.541 334.457 230.308 345.599 229.535 356.723 228.513 367.826 227.309 370.331 227.037 373.543 228.677 375.251 230.384 377.072 232.205 378.443 235.193 378.326 237.809 378.204 240.524 377.312 243.341 375.251 245.233 373.076 247.229 370.748 247.992 367.826 248.309 347.962 250.463 328.025 252.035 308.05 252.644 290.486 253.181 272.883 252.977 255.357 251.643 239.114 250.406 222.879 248.259 206.95 244.819 193.169 241.843 179.599 237.84 166.5 232.614 153.337 227.363 140.603 221.15 128.591 213.615 116.593 206.088 105.269 197.394 94.769 187.895 84.39 178.505 74.831 168.234 65.981 157.397 55.888 145.038 46.585 132.048 37.989 118.607 28.882 104.368 20.521 89.66 12.647 74.707 3.892 58.082-4.266 41.146-12.071 24.057-14.115 19.582-16.134 15.095-18.133 10.599-19.318 7.934-19.997 5.435-19.191 2.508-18.521 .073-16.637-2.567-14.366-3.767-9.796-6.181-2.382-5.358 0 0"/>
<path transform="matrix(1,0,0,-1,460.2205,468.60774)" d="M0 0C231.066-38.587 330.923-4.859 365.219 222.683" fill="#39b54a"/>
<path transform="matrix(1,0,0,-1,457.4292,478.73265)" d="M0 0C22.17-3.699 44.422-6.967 66.758-9.494 85.706-11.637 104.732-13.216 123.796-13.808 140.539-14.328 157.328-14.088 174.018-12.589 189.585-11.191 205.145-8.842 220.272-4.858 234.068-1.226 247.56 3.83 260.257 10.349 272.539 16.656 283.977 24.592 294.346 33.703 305.048 43.105 314.35 53.984 322.558 65.607 331.155 77.78 338.312 90.927 344.378 104.526 351.697 120.935 357.668 137.882 362.537 155.171 367.979 174.497 372.153 194.169 375.549 213.951 376.467 219.297 377.325 224.653 378.135 230.016 378.573 232.914 378.617 235.476 377.077 238.107 375.802 240.285 373.305 242.363 370.802 242.933 368.114 243.545 365.097 243.412 362.711 241.874 360.57 240.494 358.283 238.235 357.885 235.599 353.795 208.52 348.477 181.554 340.705 155.273 337.414 144.143 333.672 133.139 329.327 122.374 328.835 121.154 328.333 119.939 327.827 118.725 327.176 117.162 328.97 121.415 328.306 119.86 328.209 119.632 328.112 119.405 328.015 119.177 327.724 118.497 327.431 117.818 327.135 117.141 326.067 114.695 324.964 112.263 323.825 109.849 321.627 105.189 319.292 100.592 316.807 96.077 312.143 87.603 306.944 79.415 301.129 71.682 300.811 71.259 300.491 70.839 300.171 70.419 298.857 68.696 302.046 72.823 300.556 70.921 299.814 69.974 299.062 69.035 298.301 68.103 296.861 66.34 295.387 64.605 293.878 62.901 290.914 59.553 287.817 56.322 284.59 53.227 281.453 50.219 278.193 47.339 274.818 44.601 274.009 43.944 273.189 43.3 272.37 42.655 271.179 41.719 274.761 44.484 273.553 43.57 273.395 43.45 273.238 43.329 273.08 43.209 272.607 42.849 272.132 42.492 271.654 42.138 269.905 40.84 268.128 39.579 266.326 38.355 259.065 33.427 251.388 29.124 243.423 25.443 242.458 24.997 241.49 24.561 240.517 24.133 240.006 23.908 239.492 23.688 238.98 23.466 238.554 23.282 237.437 22.813 239.391 23.637 241.448 24.505 239.972 23.883 239.517 23.694 237.431 22.831 235.328 22.007 233.211 21.223 228.893 19.622 224.516 18.182 220.096 16.892 210.866 14.196 201.453 12.149 191.962 10.615 189.521 10.22 187.073 9.86 184.622 9.529 185.553 9.655 186.483 9.78 187.413 9.905 170.95 7.703 154.324 6.892 137.721 6.948 118.685 7.013 99.662 8.205 80.718 10.039 68.934 11.179 57.175 12.577 45.441 14.153 46.372 14.028 47.302 13.903 48.232 13.778 33.981 15.698 19.767 17.884 5.583 20.25 2.719 20.728 .087 20.71-2.508 19.191-4.686 17.917-6.763 15.419-7.334 12.916-8.489 7.845-5.793 .966 0 0"/>
<path transform="matrix(1,0,0,-1,246.7993,401.85734)" d="M0 0C14.704-5.617 29.311-11.485 43.814-17.602 42.381-16.997 40.947-16.392 39.514-15.787 61.175-24.936 82.601-34.636 103.762-44.887 125.092-55.22 146.153-66.108 166.922-77.528 187.719-88.963 208.222-100.931 228.414-113.405 248.783-125.988 268.833-139.085 288.552-152.664 308.589-166.463 328.283-180.759 347.625-195.517 350.003-197.332 352.375-199.154 354.743-200.982 353.529-200.044 352.315-199.106 351.1-198.167 357.86-203.391 364.578-208.668 371.253-214 372.883-215.755 374.814-216.996 377.046-217.722 379.191-218.849 381.503-219.365 383.981-219.272 388.396-219.272 393.669-217.311 396.709-214 399.858-210.569 402.195-206.066 401.981-201.272 401.781-196.814 400.358-191.459 396.709-188.544 372.731-169.393 348.254-150.855 323.219-133.107 299.682-116.421 275.658-100.421 251.169-85.165 226.943-70.072 202.263-55.706 177.162-42.116 152.233-28.62 126.89-15.889 101.174-3.96 74.323 8.495 47.068 20.109 19.499 30.88 16.194 32.171 12.884 33.448 9.57 34.714 5.452 36.287-.639 35.042-4.3 32.899-8.034 30.715-11.595 26.433-12.572 22.142-13.621 17.534-13.394 12.362-10.757 8.272L-7.943 4.629C-5.697 2.398-3.049 .855 0 0" fill="#603813"/>
</g>
</g>
</svg>
