<svg xmlns="http://www.w3.org/2000/svg" xmlns:xlink="http://www.w3.org/1999/xlink" xmlns:inkscape="http://www.inkscape.org/namespaces/inkscape" version="1.1" width="1280" height="800" viewBox="0 0 1280 800">
<defs>
<clipPath id="clip_0">
<path transform="matrix(1,0,0,-1,0,800)" d="M0 800H1280V0H0Z"/>
</clipPath>
<clipPath id="clip_1">
<path transform="matrix(1,0,0,-1,0,800)" d="M0 800H1280V0H0Z"/>
</clipPath>
</defs>
<g inkscape:groupmode="layer" inkscape:label="Layer 1">
<path transform="matrix(1,0,0,-1,0,800)" d="M0 0H1280V800H0Z"/>
<g clip-path="url(#clip_0)">
<path transform="matrix(1,0,0,-1,0,800)" stroke-width="3" stroke-linecap="butt" stroke-miterlimit="10" stroke-linejoin="miter" fill="none" stroke="#000000" d="M1307.172-47.475H0V800H1307.172Z"/>
</g>
<text fill="#ffffff" xml:space="preserve" transform="matrix(.9754025 0 -0 1.0252179 0 800)" font-size="243.05352" font-family="Comfortaa"><tspan y="-236.62744" x="199.29474 363.5989 479.04936 576.5138 648.7007 719.91537 884.2195 981.68399">artilate</tspan></text>
<g clip-path="url(#clip_1)">
<path transform="matrix(1,0,0,-1,302.0244,549.55569)" stroke-width="3" stroke-linecap="butt" stroke-miterlimit="10" stroke-linejoin="miter" fill="none" stroke="#ffffff" d="M0 0C9.165 5.895 16.396 13.868 21.692 23.921 26.986 33.971 29.635 45.308 29.635 57.935L38.169 60.177C38.01 73.298 35.046 85.096 29.279 95.561 23.508 106.027 15.725 114.289 5.927 120.355-3.875 126.417-15.017 129.45-27.5 129.45-39.828 129.45-50.934 126.417-60.81 120.355-70.689 114.289-78.512 106.027-84.28 95.561-90.051 85.096-92.933 73.298-92.933 60.177-92.933 47.053-90.207 35.298-84.754 24.918-79.301 14.534-71.915 6.311-62.587 .249-53.264-5.817-42.755-8.847-31.057-8.847-19.521-8.847-9.168-5.899 0 0ZM-50.141 17.94C-56.861 22.177-62.154 27.99-66.025 35.384-69.9 42.773-71.833 51.039-71.833 60.177-71.833 69.646-69.9 78.033-66.025 85.345-62.154 92.653-56.82 98.427-50.022 102.663-43.229 106.899-35.643 109.017-27.263 109.017-18.888 109.017-11.379 106.899-4.741 102.663 1.897 98.427 7.149 92.61 11.024 85.22 14.895 77.827 16.833 69.479 16.833 60.177 16.833 51.039 14.895 42.773 11.024 35.384 7.149 27.99 1.897 22.177-4.741 17.94-11.379 13.705-18.966 11.587-27.5 11.587-35.879 11.587-43.425 13.705-50.141 17.94ZM35.087-4.859C37.14-2.702 38.169 .039 38.169 3.363V60.177L20.626 67.154 16.122 43.232V3.363C16.122 .039 17.147-2.702 19.203-4.859 21.255-7.021 23.863-8.099 27.027-8.099 30.346-8.099 33.031-7.021 35.087-4.859Z"/>
<path transform="matrix(1,0,0,-1,397.5649,472.6831)" stroke-width="3" stroke-linecap="butt" stroke-miterlimit="10" stroke-linejoin="miter" fill="none" stroke="#ffffff" d="M0 0C0 7.639 2.211 14.118 6.638 19.436 11.061 24.751 17.069 28.489 24.656 30.649 32.242 32.807 40.854 33.056 50.497 31.397 52.708 31.062 54.764 30.937 56.661 31.023 58.558 31.105 60.217 31.685 61.64 32.768 63.062 33.846 64.01 35.633 64.484 38.125 65.588 42.443 63.969 46.013 59.625 48.84 55.275 51.663 48.756 53.076 40.065 53.076 30.738 53.076 22.204 50.748 14.461 46.099 6.716 41.446 .511 35.135-4.149 27.161-8.813 19.187-11.302 10.131-11.617 0H0ZM-2.727-81.732C-.911-79.739 0-76.998 0-73.509V40.368C0 44.02-.911 46.804-2.727 48.715-4.545 50.623-7.271 51.581-10.905 51.581-14.225 51.581-16.833 50.584-18.729 48.591-20.625 46.597-21.574 43.856-21.574 40.368V-73.509C-21.574-77.165-20.625-79.949-18.729-81.857-16.833-83.768-14.225-84.722-10.905-84.722-7.271-84.722-4.545-83.725-2.727-81.732Z"/>
<path transform="matrix(1,0,0,-1,541.7041,557.4053)" stroke-width="3" stroke-linecap="butt" stroke-miterlimit="10" stroke-linejoin="miter" fill="none" stroke="#ffffff" d="M0 0C3.634 0 6.598 1.036 8.891 3.115 11.18 5.19 12.328 7.889 12.328 11.213 12.328 14.534 11.417 17.275 9.602 19.437 7.783 21.593 5.531 22.676 2.845 22.676H-4.504C-10.513 22.676-15.491 25.082-19.44 29.902-23.393 34.718-25.367 40.866-25.367 48.342V168.198C-25.367 171.52-26.396 174.261-28.449 176.421-30.505 178.579-33.113 179.661-36.272 179.661-39.436 179.661-42.003 178.579-43.977 176.421-45.956 174.261-46.941 171.52-46.941 168.198V48.342C-46.941 39.036-45.125 30.774-41.488 23.548-37.854 16.321-32.798 10.59-26.315 6.354-19.836 2.118-12.565 0-4.504 0H0ZM-2.607 111.634C.237 111.634 2.608 112.545 4.504 114.375 6.401 116.201 7.35 118.525 7.35 121.352 7.35 124.342 6.401 126.749 4.504 128.578 2.608 130.404 .237 131.319-2.607 131.319H-59.743C-62.588 131.319-64.958 130.404-66.855 128.578-68.751 126.749-69.7 124.342-69.7 121.352-69.7 118.525-68.751 116.201-66.855 114.375-64.958 112.545-62.588 111.634-59.743 111.634H-2.607Z"/>
<path transform="matrix(1,0,0,-1,605.4736,554.166)" stroke-width="3" stroke-linecap="butt" stroke-miterlimit="10" stroke-linejoin="miter" fill="none" stroke="#ffffff" d="M0 0C2.052 2.157 3.082 4.898 3.082 8.224V121.602C3.082 125.09 2.052 127.87 0 129.949-2.056 132.024-4.664 133.064-7.823 133.064-11.142 133.064-13.832 132.024-15.884 129.949-17.94 127.87-18.966 125.09-18.966 121.602V8.224C-18.966 4.898-17.94 2.157-15.884 0-13.832-2.161-11.142-3.239-7.823-3.239-4.664-3.239-2.056-2.161 0 0ZM2.371 161.221C5.216 164.211 6.638 167.864 6.638 172.186 6.638 176.503 5.175 180.117 2.252 183.025-.674 185.93-4.03 187.386-7.823 187.386-11.776 187.386-15.213 185.93-18.136 183.025-21.062 180.117-22.522 176.503-22.522 172.186-22.522 167.864-21.1 164.211-18.254 161.221-15.41 158.231-12.013 156.736-8.061 156.736-3.952 156.736-.474 158.231 2.371 161.221Z"/>
<path transform="matrix(1,0,0,-1,685.3677,557.4053)" stroke-width="3" stroke-linecap="butt" stroke-miterlimit="10" stroke-linejoin="miter" fill="none" stroke="#ffffff" d="M0 0C4.108 0 7.468 1.036 10.076 3.115 12.683 5.19 13.987 7.889 13.987 11.213 13.987 14.702 13.117 17.481 11.379 19.561 9.638 21.636 7.268 22.676 4.267 22.676H-1.66C-5.453 22.676-8.535 24.751-10.906 28.905-13.276 33.056-14.462 38.374-14.462 44.853V183.398C-14.462 186.72-15.451 189.418-17.425 191.497-19.403 193.572-22.048 194.612-25.367 194.612-28.531 194.612-31.098 193.572-33.072 191.497-35.05 189.418-36.036 186.72-36.036 183.398V44.853C-36.036 36.046-34.576 28.282-31.65 21.555-28.727 14.826-24.656 9.551-19.44 5.731-14.225 1.908-8.298 0-1.66 0H0Z"/>
<path transform="matrix(1,0,0,-1,809.832,549.55569)" stroke-width="3" stroke-linecap="butt" stroke-miterlimit="10" stroke-linejoin="miter" fill="none" stroke="#ffffff" d="M0 0C9.164 5.895 16.395 13.868 21.692 23.921 26.985 33.971 29.634 45.308 29.634 57.935L38.169 60.177C38.01 73.298 35.046 85.096 29.278 95.561 23.507 106.027 15.725 114.289 5.927 120.355-3.875 126.417-15.018 129.45-27.501 129.45-39.829 129.45-50.935 126.417-60.81 120.355-70.689 114.289-78.513 106.027-84.28 95.561-90.052 85.096-92.934 73.298-92.934 60.177-92.934 47.053-90.207 35.298-84.755 24.918-79.302 14.534-71.915 6.311-62.588 .249-53.265-5.817-42.755-8.847-31.057-8.847-19.521-8.847-9.168-5.899 0 0ZM-50.142 17.94C-56.861 22.177-62.154 27.99-66.025 35.384-69.9 42.773-71.834 51.039-71.834 60.177-71.834 69.646-69.9 78.033-66.025 85.345-62.154 92.653-56.82 98.427-50.023 102.663-43.229 106.899-35.643 109.017-27.264 109.017-18.889 109.017-11.38 106.899-4.742 102.663 1.896 98.427 7.149 92.61 11.023 85.22 14.895 77.827 16.832 69.479 16.832 60.177 16.832 51.039 14.895 42.773 11.023 35.384 7.149 27.99 1.896 22.177-4.742 17.94-11.38 13.705-18.966 11.587-27.501 11.587-35.88 11.587-43.426 13.705-50.142 17.94ZM35.087-4.859C37.139-2.702 38.169 .039 38.169 3.363V60.177L20.625 67.154 16.121 43.232V3.363C16.121 .039 17.146-2.702 19.203-4.859 21.255-7.021 23.863-8.099 27.026-8.099 30.346-8.099 33.031-7.021 35.087-4.859Z"/>
<path transform="matrix(1,0,0,-1,936.9023,557.4053)" stroke-width="3" stroke-linecap="butt" stroke-miterlimit="10" stroke-linejoin="miter" fill="none" stroke="#ffffff" d="M0 0C3.634 0 6.598 1.036 8.891 3.115 11.18 5.19 12.328 7.889 12.328 11.213 12.328 14.534 11.417 17.275 9.602 19.437 7.783 21.593 5.53 22.676 2.845 22.676H-4.504C-10.513 22.676-15.491 25.082-19.44 29.902-23.393 34.718-25.367 40.866-25.367 48.342V168.198C-25.367 171.52-26.396 174.261-28.449 176.421-30.505 178.579-33.112 179.661-36.272 179.661-39.436 179.661-42.003 178.579-43.978 176.421-45.955 174.261-46.94 171.52-46.94 168.198V48.342C-46.94 39.036-45.126 30.774-41.488 23.548-37.854 16.321-32.798 10.59-26.315 6.354-19.836 2.118-12.564 0-4.504 0H0ZM-2.607 111.634C.237 111.634 2.608 112.545 4.505 114.375 6.401 116.201 7.35 118.525 7.35 121.352 7.35 124.342 6.401 126.749 4.505 128.578 2.608 130.404 .237 131.319-2.607 131.319H-59.743C-62.588 131.319-64.958 130.404-66.855 128.578-68.752 126.749-69.7 124.342-69.7 121.352-69.7 118.525-68.752 116.201-66.855 114.375-64.958 112.545-62.588 111.634-59.743 111.634H-2.607Z"/>
<path transform="matrix(1,0,0,-1,1061.957,554.041)" stroke-width="3" stroke-linecap="butt" stroke-miterlimit="10" stroke-linejoin="miter" fill="none" stroke="#ffffff" d="M0 0C7.979 2.904 14.658 6.604 20.033 11.088 22.403 13.082 23.508 15.449 23.352 18.19 23.192 20.931 21.93 23.462 19.559 25.79 17.662 27.449 15.447 28.239 12.921 28.157 10.391 28.071 8.02 27.118 5.809 25.292 2.645 22.633-1.659 20.309-7.112 18.314-12.565 16.321-17.821 15.324-22.878 15.324-32.205 15.324-40.385 17.481-47.415 21.803-54.449 26.121-59.98 31.977-64.011 39.37-68.041 46.761-70.056 55.193-70.056 64.663-70.056 74.132-68.318 82.604-64.84 90.079-61.365 97.555-56.346 103.45-49.786 107.771-43.229 112.089-35.442 114.25-26.434 114.25-18.218 114.25-11.184 112.256-5.334 108.27 .511 104.283 5.016 98.801 8.179 91.824 11.339 84.847 12.998 76.955 13.157 68.151L22.878 75.377H-74.797V56.938H22.641C25.641 56.938 28.053 57.892 29.871 59.804 31.687 61.711 32.598 64.079 32.598 66.905 32.598 80.026 30.227 91.613 25.485 101.667 20.744 111.715 13.946 119.607 5.097 125.339-3.756 131.07-14.266 133.936-26.434 133.936-38.921 133.936-49.904 130.984-59.388 125.089-68.87 119.191-76.301 111.05-81.673 100.669-87.048 90.286-89.733 78.282-89.733 64.663-89.733 51.207-86.888 39.285-81.198 28.905-75.509 18.521-67.648 10.38-57.609 4.485-47.574-1.414-35.998-4.361-22.878-4.361-15.61-4.361-7.982-2.909 0 0Z"/>
<path transform="matrix(1,0,0,-1,654.277,317.8478)" d="M0 0C-17.272 54.729-14.965 80.96 26.932 102.663" fill="#db2324"/>
<path transform="matrix(1,0,0,-1,658.6163,316.6516)" d="M0 0C-2.977 9.446-5.724 18.991-7.675 28.707-8.095 30.8-8.476 32.9-8.807 35.008-8.887 35.516-8.963 36.024-9.037 36.533-9.066 36.735-9.094 36.936-9.123 37.138-9.272 38.161-9.026 36.32-9.104 36.992-9.225 38.023-9.361 39.053-9.467 40.086-9.843 43.754-10.03 47.447-9.93 51.134-9.884 52.842-9.775 54.549-9.594 56.247-9.554 56.62-9.502 56.99-9.464 57.363-9.401 57.981-9.65 56.137-9.51 57.025-9.484 57.187-9.463 57.35-9.439 57.512-9.306 58.395-9.151 59.274-8.974 60.149-8.668 61.666-8.293 63.168-7.845 64.65-7.63 65.36-7.398 66.066-7.149 66.766-7.019 67.132-6.884 67.497-6.744 67.86-6.688 68.005-6.632 68.15-6.574 68.295-6.514 68.447-6.107 69.419-6.448 68.619-6.781 67.841-6.305 68.94-6.211 69.148-6.051 69.501-5.887 69.853-5.718 70.202-5.363 70.937-4.988 71.661-4.593 72.376-3.852 73.716-3.043 75.018-2.172 76.278-1.723 76.927-1.163 77.541-.759 78.216-1.479 77.011-.823 78.124-.559 78.448-.301 78.765-.039 79.079 .227 79.39 1.318 80.666 2.471 81.89 3.673 83.063 5.099 84.454 6.593 85.775 8.139 87.032 8.508 87.332 9.015 87.617 9.328 87.978 8.67 87.219 8.872 87.631 9.194 87.872 9.458 88.07 9.721 88.27 9.986 88.466 10.839 89.098 11.704 89.713 12.579 90.313 16.508 93.005 20.64 95.387 24.864 97.581 26.957 98.668 27.75 101.766 26.479 103.738 25.104 105.87 22.56 106.515 20.322 105.353 6.808 98.333-6.681 88.83-13.49 74.744-20.244 60.771-19.692 45.072-17.073 30.134-15.138 19.098-12.042 8.283-8.679-2.393-7.972-4.634-5.515-6.303-3.143-5.536-.892-4.807 .758-2.404 0 0"/>
<path transform="matrix(1,0,0,-1,654.277,317.8478)" d="M0 0C34.017 32.786 53.56 59.032 26.965 102.623" fill="#ffdd13"/>
<path transform="matrix(1,0,0,-1,657.459,321.0298)" d="M0 0C11.874 11.452 23.991 23.523 32.185 37.992 35.67 44.145 38.427 50.85 39.701 57.827 41.082 65.386 40.895 72.993 39.31 80.509 37.245 90.302 32.84 99.565 27.668 108.076 26.446 110.087 23.578 111.023 21.512 109.69 19.492 108.388 18.589 105.686 19.897 103.533 22.277 99.616 24.467 95.581 26.33 91.391 26.438 91.148 26.543 90.904 26.65 90.661 26.718 90.507 26.987 89.861 26.66 90.647 26.834 90.228 27.006 89.808 27.174 89.387 27.572 88.387 27.95 87.38 28.306 86.364 28.945 84.541 29.513 82.692 29.996 80.821 30.454 79.05 30.835 77.259 31.13 75.454 31.193 75.07 31.239 74.684 31.306 74.301 31.417 73.663 31.215 75.158 31.276 74.516 31.296 74.299 31.328 74.082 31.352 73.865 31.454 72.953 31.533 72.039 31.588 71.123 31.688 69.44 31.707 67.753 31.641 66.069 31.611 65.293 31.562 64.519 31.495 63.745 31.465 63.386 31.43 63.028 31.391 62.67 31.369 62.465 31.344 62.262 31.321 62.058 31.209 61.021 31.44 62.791 31.342 62.187 30.816 58.945 30.106 55.773 29.048 52.659 28.799 51.926 28.535 51.198 28.257 50.476 28.108 50.088 27.951 49.704 27.798 49.318 27.706 49.086 27.547 48.524 27.89 49.527 27.806 49.282 27.682 49.045 27.578 48.808 26.893 47.257 26.147 45.733 25.349 44.236 23.711 41.163 21.857 38.207 19.863 35.354 19.335 34.599 18.798 33.852 18.252 33.111 17.976 32.736 17.697 32.363 17.416 31.991 17.221 31.734 16.451 30.745 17.045 31.501 15.856 29.986 14.646 28.487 13.402 27.016 7.249 19.733 .494 12.978-6.364 6.364-8.062 4.727-8.133 1.624-6.364 0-4.541-1.674-1.811-1.747 0 0"/>
<path transform="matrix(1,0,0,-1,661.3846,322.1578)" d="M0 0C20.509 54.737 40.175 72.921 100.061 62.973" fill="#ea9700"/>
<path transform="matrix(1,0,0,-1,665.7239,323.3541)" d="M0 0C.983 2.62 1.989 5.231 3.031 7.827 3.488 8.967 3.952 10.104 4.424 11.238 4.55 11.542 4.672 11.849 4.805 12.15 4.32 11.049 4.774 12.074 4.86 12.277 5.113 12.87 5.368 13.462 5.625 14.053 7.515 18.389 9.532 22.673 11.757 26.848 13.743 30.573 15.895 34.214 18.29 37.692 18.815 38.454 19.351 39.208 19.9 39.953 20.186 40.341 20.457 40.797 20.794 41.142 19.748 40.07 20.971 41.361 21.224 41.675 22.393 43.128 23.617 44.536 24.901 45.889 26.115 47.168 27.383 48.396 28.705 49.563 29.382 50.16 30.073 50.742 30.779 51.305 30.896 51.398 31.015 51.49 31.131 51.584 31.805 52.13 30.231 50.916 30.93 51.428 31.351 51.736 31.765 52.052 32.19 52.354 35.042 54.387 38.099 56.126 41.303 57.542 41.47 57.616 41.792 57.691 41.926 57.812 41.905 57.793 40.822 57.364 41.48 57.622 41.905 57.789 42.327 57.964 42.753 58.127 43.617 58.457 44.488 58.765 45.367 59.052 47.177 59.643 49.016 60.143 50.874 60.562 52.743 60.983 54.628 61.31 56.523 61.587 57.475 61.727 55.389 61.448 56.348 61.563 56.606 61.594 56.864 61.627 57.122 61.658 57.557 61.708 57.992 61.756 58.427 61.8 59.541 61.912 60.657 62.002 61.774 62.071 66.92 62.392 72.088 62.289 77.229 61.929 80.087 61.729 82.939 61.448 85.784 61.104 86.588 61.007 87.394 60.915 88.196 60.798 86.996 60.973 88.193 60.797 88.4 60.768 88.753 60.719 89.106 60.669 89.46 60.618 91.151 60.373 92.84 60.109 94.526 59.83 96.839 59.447 99.483 60.433 100.061 62.973 100.556 65.143 99.402 68.097 96.918 68.508 86.287 70.266 75.476 71.556 64.681 71.208 56.375 70.94 47.93 69.736 40.147 66.724 32.8 63.88 26.178 59.694 20.495 54.225 14.518 48.473 9.68 41.539 5.607 34.342-.142 24.186-4.586 13.302-8.679 2.393-9.507 .184-7.758-2.637-5.536-3.143-2.978-3.725-.887-2.364 0 0"/>
<path transform="matrix(1,0,0,-1,663.0403,320.9533)" d="M0 0C63.935-14.538 90.844-6.032 97 60.252" fill="#2c7200"/>
<path transform="matrix(1,0,0,-1,661.844,325.2926)" d="M0 0C11.422-2.592 22.99-4.823 34.676-5.794 43.578-6.534 52.7-6.455 61.435-4.394 69.044-2.6 76.167 .973 81.898 6.321 88.118 12.125 92.269 19.711 95.256 27.589 99.165 37.899 100.974 48.928 102.208 59.84 102.387 61.422 102.547 63.006 102.696 64.591 102.916 66.942 100.469 69.193 98.196 69.091 95.57 68.974 93.931 67.109 93.696 64.591 93.547 63.006 93.387 61.422 93.208 59.84 93.124 59.101 93.037 58.363 92.946 57.625 92.904 57.289 92.862 56.954 92.819 56.618 92.797 56.452 92.775 56.285 92.754 56.119 92.673 55.471 92.874 56.965 92.782 56.323 92.375 53.487 91.947 50.657 91.416 47.841 90.499 42.971 89.343 38.137 87.794 33.427 87.44 32.348 87.064 31.276 86.665 30.212 86.478 29.716 86.287 29.221 86.09 28.729 86 28.505 85.908 28.282 85.818 28.058 85.454 27.158 86.143 28.796 85.855 28.143 85.025 26.262 84.149 24.409 83.148 22.611 82.234 20.969 81.233 19.373 80.137 17.845 79.878 17.484 79.594 17.138 79.343 16.773 79.566 17.097 79.994 17.596 79.548 17.043 79.379 16.834 79.211 16.624 79.04 16.416 78.491 15.752 77.922 15.105 77.332 14.478 76.136 13.205 74.856 12.012 73.496 10.916 73.348 10.796 73.186 10.686 73.046 10.558 73.303 10.794 73.927 11.221 73.348 10.796 72.988 10.532 72.629 10.268 72.262 10.014 71.554 9.523 70.83 9.057 70.09 8.617 68.613 7.737 67.034 7.104 65.527 6.296 65.845 6.466 66.556 6.716 65.878 6.447 65.664 6.362 65.451 6.275 65.237 6.192 64.805 6.024 64.371 5.863 63.934 5.71 63.109 5.419 62.276 5.154 61.437 4.911 59.626 4.388 57.785 3.972 55.928 3.646 55.501 3.571 55.073 3.501 54.644 3.435 54.391 3.396 54.138 3.362 53.885 3.323 53.183 3.216 55.048 3.465 54.094 3.353 53.083 3.234 52.072 3.124 51.057 3.043 46.72 2.694 42.358 2.72 38.017 2.97 35.563 3.111 33.113 3.325 30.67 3.594 29.431 3.73 28.195 3.883 26.959 4.043 26.139 4.15 27.993 3.898 26.843 4.06 26.549 4.102 26.255 4.143 25.961 4.185 25.267 4.284 24.573 4.388 23.88 4.494 18.224 5.363 12.602 6.45 7.009 7.656 5.468 7.988 3.93 8.33 2.393 8.679 .102 9.198-2.586 7.979-3.143 5.536-3.664 3.247-2.455 .557 0 0"/>
<path transform="matrix(1,0,0,-1,601.5797,298.5528)" d="M0 0C14.797-6.669 29.186-14.227 43.09-22.598 57.353-31.185 71.102-40.616 84.308-50.752 84.548-50.936 84.798-51.114 85.03-51.307 84.682-51.018 84.351-50.781 84.899-51.206 85.38-51.58 85.86-51.953 86.34-52.328 87.242-53.033 88.141-53.741 89.037-54.452 90.957-55.976 92.866-57.514 94.762-59.066 98.53-62.151 102.25-65.293 105.926-68.486 108.294-70.542 112.114-70.988 114.411-68.486 116.483-66.23 116.942-62.198 114.411-60.001 101.2-48.527 87.399-37.708 73.031-27.717 59.474-18.29 45.39-9.618 30.83-1.828 22.713 2.515 14.449 6.579 6.057 10.362 4.542 11.044 3.098 11.425 1.433 10.966 .042 10.583-1.467 9.507-2.153 8.209-3.539 5.586-3.055 1.377 0 0" fill="#603813"/>
</g>
<text fill="#ffffff" xml:space="preserve" transform="matrix(1 0 -0 1 0 800)" font-size="126" font-family="Sacramento"><tspan y="-128.8437" x="323.1284 359.1644 398.9804 455.0504 487.0544 523.0904 549.5504 589.3664 633.4664 665.4704 696.3404 735.0224 762.74246 843.2565 886.60049 932.59048">consciously made</tspan></text>
</g>
</svg>
