<?xml version="1.0" standalone="no"?>
<!DOCTYPE svg PUBLIC "-//W3C//DTD SVG 20010904//EN"
 "http://www.w3.org/TR/2001/REC-SVG-20010904/DTD/svg10.dtd">
<svg version="1.0" xmlns="http://www.w3.org/2000/svg"
 width="2150.000000pt" height="1518.000000pt" viewBox="0 0 2150.000000 1518.000000"
 preserveAspectRatio="xMidYMid meet">

<g transform="translate(0.000000,1518.000000) scale(0.100000,-0.100000)"
fill="#000000" stroke="none">
<path d="M10311 14869 c-53 -27 -120 -114 -167 -216 -139 -302 -237 -921 -221
-1396 l6 -169 -34 -80 c-100 -237 -248 -389 -404 -414 l-43 -7 31 43 c38 53
53 106 53 185 -1 71 -23 133 -91 255 -27 47 -66 121 -88 165 -39 77 -40 83
-36 156 6 85 -10 132 -52 151 -83 37 -139 -69 -102 -193 11 -37 11 -56 0 -114
-8 -39 -25 -94 -39 -124 -13 -30 -33 -89 -43 -131 -74 -295 -212 -447 -338
-370 -75 45 -116 154 -144 375 -22 171 -35 207 -80 213 -16 2 -33 -6 -49 -23
l-23 -25 18 -164 c10 -90 16 -195 13 -234 -7 -89 -43 -168 -100 -217 -35 -30
-49 -35 -91 -35 -102 0 -151 97 -151 300 1 87 6 134 22 193 28 100 28 123 -2
143 -80 52 -136 -56 -155 -301 -9 -119 -23 -162 -66 -213 -34 -40 -144 -99
-149 -80 -30 98 -43 133 -73 190 -66 126 -164 197 -255 185 -80 -11 -128 -72
-128 -164 0 -148 132 -303 293 -343 26 -7 47 -16 47 -21 0 -4 -9 -33 -20 -63
-66 -176 -307 -211 -404 -57 -79 125 -72 269 18 387 40 52 42 86 9 112 -27 20
-51 14 -94 -25 -84 -76 -119 -188 -119 -381 0 -331 -86 -502 -233 -461 -82 22
-145 114 -272 394 -42 94 -83 180 -91 193 -21 32 -78 31 -100 -3 -20 -31 -17
-45 52 -204 47 -108 56 -140 65 -222 23 -225 -33 -423 -151 -533 -62 -58 -103
-76 -172 -76 -99 0 -194 61 -268 172 -100 151 -104 329 -7 388 72 44 147 6
147 -75 0 -29 40 -75 65 -75 9 0 28 12 42 26 23 23 25 31 20 74 -11 93 -64
161 -146 189 -137 46 -277 -42 -317 -200 -23 -89 -14 -161 40 -321 90 -268 86
-467 -11 -594 l-38 -49 -3 30 c-6 65 -34 136 -71 182 -46 59 -122 101 -296
166 -201 75 -208 79 -244 136 -54 84 -136 116 -181 71 -45 -45 -14 -124 77
-191 45 -34 61 -55 93 -121 21 -44 37 -85 34 -93 -3 -7 17 -59 45 -116 88
-183 121 -342 87 -423 -16 -38 -50 -66 -81 -66 -41 0 -121 51 -230 145 -133
115 -188 145 -263 145 -50 0 -58 -3 -92 -38 -45 -45 -65 -106 -56 -177 10 -87
104 -342 183 -498 13 -27 23 -50 21 -52 -2 -2 -66 53 -143 122 -168 149 -219
188 -275 208 -153 54 -224 -55 -154 -233 39 -98 103 -211 130 -228 38 -26 74
-110 74 -174 0 -56 -23 -145 -41 -155 -5 -3 -26 6 -46 20 -112 75 -299 114
-389 80 -87 -33 -130 -136 -89 -214 22 -43 91 -98 151 -120 110 -42 213 -36
323 17 52 26 53 26 68 7 7 -11 21 -44 30 -74 27 -94 -6 -187 -90 -255 -32 -26
-48 -31 -106 -34 -82 -5 -136 16 -212 79 -62 52 -97 120 -108 206 -6 51 -13
71 -31 85 -65 53 -114 -22 -90 -139 19 -91 64 -169 150 -258 138 -144 209
-273 232 -420 10 -62 9 -84 -5 -141 -23 -92 -56 -137 -125 -171 -173 -85 -473
37 -522 213 -34 120 75 210 156 129 40 -40 61 -48 92 -33 39 19 43 74 6 117
-88 105 -265 99 -345 -12 -160 -221 90 -540 449 -573 172 -16 321 64 386 207
67 147 59 314 -24 487 -22 46 -40 85 -40 87 0 1 26 5 58 7 206 19 347 246 284
454 -12 38 -32 85 -46 105 l-24 35 36 72 c77 157 47 340 -80 480 -42 46 -93
144 -104 201 -6 31 -5 32 12 23 47 -25 150 -110 289 -237 83 -75 164 -145 180
-156 57 -36 119 -19 151 43 22 43 12 81 -53 212 -143 285 -218 509 -183 551
29 35 55 22 210 -114 168 -146 285 -189 385 -141 86 41 135 135 135 257 l0 58
98 0 c91 0 102 2 166 34 82 40 178 131 219 208 42 78 67 191 67 299 l0 93 48
-29 c154 -96 327 -68 469 76 97 98 173 281 173 415 l0 42 43 -39 c60 -56 106
-82 167 -95 105 -22 211 24 271 119 31 50 79 186 79 228 0 13 2 24 5 24 3 0
25 -16 51 -35 203 -155 508 -15 559 257 6 33 12 38 58 53 64 21 109 48 163 97
41 38 42 38 48 15 8 -35 83 -115 130 -139 57 -30 155 -30 212 0 51 26 125 107
155 168 l22 46 44 -52 c59 -66 106 -90 181 -90 99 0 174 39 241 122 l33 43 58
-57 c74 -73 151 -100 285 -100 203 0 368 106 502 320 l45 72 32 -94 c72 -208
171 -296 320 -284 81 7 162 49 238 124 l56 54 7 -32 c27 -123 126 -195 259
-186 57 3 74 9 124 45 l59 40 -34 -129 -34 -130 -143 -141 c-246 -245 -424
-512 -498 -747 -17 -57 -23 -98 -23 -171 0 -89 2 -99 30 -144 58 -93 192 -129
291 -78 168 88 306 408 399 923 14 80 33 175 41 211 l15 66 167 116 c92 64
204 146 249 182 98 78 231 219 240 254 10 40 -16 75 -58 79 -33 3 -39 -2 -95
-70 -73 -88 -190 -189 -341 -292 l-112 -77 20 73 c11 40 54 182 96 315 41 133
73 249 70 257 -3 8 -18 22 -32 32 -45 30 -68 9 -129 -118 -94 -197 -210 -346
-281 -364 -46 -11 -98 3 -127 36 -24 26 -28 39 -28 88 0 117 61 274 159 406
28 38 51 76 51 85 0 33 -30 61 -65 61 -45 0 -91 -54 -191 -228 -134 -233 -243
-361 -339 -397 -126 -49 -220 57 -269 300 -26 133 -28 127 62 277 241 406 395
807 433 1130 15 132 7 337 -16 403 -33 95 -83 140 -167 151 -32 4 -54 0 -87
-17z m104 -133 c13 -13 28 -41 34 -62 18 -64 13 -279 -8 -406 -45 -259 -183
-619 -346 -903 l-46 -80 5 180 c18 572 166 1208 298 1282 31 17 36 16 63 -11z
m-1076 -1748 c56 -109 64 -132 64 -180 0 -91 -48 -148 -124 -148 -43 0 -151
61 -143 80 12 30 63 177 95 277 18 56 35 100 39 98 3 -2 34 -59 69 -127z
m-1789 -245 c37 -43 88 -134 105 -191 7 -23 6 -23 -30 -8 -50 21 -91 52 -120
90 -91 120 -51 218 45 109z m3363 -830 c-71 -380 -166 -649 -268 -760 -45 -49
-84 -64 -132 -51 -169 45 25 520 355 869 35 38 65 69 67 69 1 0 -9 -57 -22
-127z m-5496 -729 c100 -48 149 -131 123 -209 -15 -44 -55 -71 -121 -80 -27
-4 -51 -11 -55 -16 -9 -15 -24 -10 -24 8 0 9 -21 68 -46 132 -26 64 -55 138
-64 166 -10 27 -21 58 -25 67 -6 15 6 13 77 -13 45 -16 106 -41 135 -55z
m-1341 -1599 c41 -14 87 -33 101 -42 l25 -17 -38 -13 c-126 -44 -326 21 -262
85 19 19 94 14 174 -13z"/>
<path d="M6140 13023 c-139 -72 -87 -283 70 -283 60 0 106 29 130 83 24 52 24
71 1 123 -36 79 -129 114 -201 77z m92 -95 c24 -20 28 -44 12 -67 -17 -23 -53
-28 -72 -9 -18 18 -15 65 6 77 23 14 35 13 54 -1z"/>
<path d="M12598 12759 c-51 -12 -148 -61 -234 -120 -71 -47 -84 -63 -84 -99 0
-19 44 -60 65 -60 6 0 58 30 114 66 100 64 157 92 167 81 10 -10 -28 -71 -188
-304 -180 -264 -189 -284 -139 -334 29 -29 36 -31 85 -27 46 4 74 17 188 85
164 100 369 207 426 224 54 16 92 1 92 -35 0 -15 -33 -74 -81 -143 -257 -374
-262 -385 -216 -439 46 -53 78 -43 310 95 301 179 416 227 475 199 54 -26 41
-67 -68 -212 -166 -222 -189 -349 -83 -452 60 -59 122 -78 230 -71 68 4 83 2
79 -8 -34 -89 -25 -175 24 -244 56 -76 169 -117 291 -104 l59 6 -16 -44 c-20
-56 -21 -154 -2 -199 38 -88 140 -149 267 -157 l77 -6 -18 -51 c-22 -66 -22
-84 2 -150 28 -73 89 -129 166 -152 45 -13 83 -15 171 -12 81 4 111 2 106 -6
-4 -6 -24 -37 -44 -69 -53 -82 -72 -145 -67 -222 9 -145 128 -239 320 -252
l78 -6 -32 -35 c-128 -146 -119 -367 22 -516 99 -104 245 -154 481 -163 140
-6 147 -5 168 16 29 29 27 65 -5 90 -23 18 -41 21 -136 21 -243 0 -393 63
-457 191 -34 68 -41 149 -18 201 l12 26 65 -39 c249 -152 549 -70 550 151 0
89 -76 184 -168 210 -54 15 -177 12 -293 -6 -138 -22 -305 -16 -371 14 -88 39
-110 121 -59 220 22 42 125 176 157 203 10 9 96 35 191 57 523 127 1001 343
1210 548 72 71 102 129 103 196 0 41 -5 54 -36 87 -19 22 -51 45 -71 52 -57
18 -194 6 -293 -27 -208 -68 -585 -289 -830 -487 l-104 -84 -19 39 c-34 68
-132 129 -246 154 -102 21 -174 17 -278 -15 -121 -39 -226 -55 -315 -49 -115
7 -171 50 -170 128 1 58 30 117 104 208 37 46 68 92 68 101 0 9 -7 27 -16 39
-22 32 -66 28 -121 -10 -177 -121 -393 -93 -393 53 0 71 103 179 210 221 83
32 199 31 265 -4 83 -43 135 -115 135 -186 0 -39 40 -77 74 -68 46 11 59 34
53 96 -10 119 -82 215 -201 271 -59 28 -184 53 -211 43 -7 -3 -23 4 -34 15
-29 29 -65 26 -114 -8 -61 -42 -214 -116 -276 -135 -76 -22 -168 -21 -208 4
-85 51 -66 118 92 330 79 106 104 160 105 223 0 105 -82 177 -203 177 -84 0
-275 -87 -494 -226 -29 -19 -53 -32 -53 -30 0 3 40 62 89 133 109 157 131 201
137 267 7 66 -17 112 -71 144 -34 19 -52 22 -115 20 -66 -3 -87 -9 -170 -49
-84 -40 -240 -126 -365 -200 l-39 -24 47 65 c101 139 217 318 243 373 42 93
24 161 -53 193 -36 16 -42 16 -95 3z m3835 -1828 c17 -17 -3 -61 -47 -105
-125 -125 -447 -298 -745 -400 -151 -52 -351 -109 -357 -103 -11 11 256 218
411 320 328 214 676 350 738 288z m-1439 -419 c26 -12 69 -39 94 -61 26 -21
56 -40 66 -42 16 -3 2 -20 -65 -80 l-85 -75 -102 -18 c-133 -24 -257 -24 -300
-2 -36 18 -62 62 -62 102 0 63 88 139 208 181 82 29 173 27 246 -5z m641 -973
c83 -73 13 -159 -129 -159 -72 0 -139 19 -199 57 -43 27 -41 37 19 74 59 36
136 58 206 59 61 0 70 -3 103 -31z"/>
<path d="M18295 12038 c-381 -199 -685 -482 -820 -763 -95 -197 -125 -331
-132 -601 -7 -270 21 -507 101 -839 19 -77 33 -141 31 -143 -1 -2 -49 23 -106
54 -269 149 -864 424 -917 424 -37 0 -88 -33 -107 -69 -20 -40 -19 -79 4 -117
20 -33 26 -36 251 -135 740 -325 1539 -823 2189 -1365 57 -47 120 -93 139
-101 78 -32 151 17 160 107 5 51 4 51 -49 103 -111 107 -497 406 -777 601 -78
55 -141 101 -139 102 1 2 71 -6 154 -16 533 -69 927 -34 1220 106 419 200 672
645 794 1394 14 87 28 144 40 162 25 35 24 88 -1 116 -43 46 -236 67 -620 67
-250 -1 -301 -3 -410 -23 -184 -33 -328 -78 -467 -147 -68 -33 -123 -55 -123
-49 0 6 5 59 11 119 26 260 -34 526 -189 838 -66 133 -91 173 -115 188 -42 25
-52 24 -122 -13z m93 -305 c107 -226 146 -389 146 -603 0 -151 -8 -208 -51
-345 -22 -70 -34 -89 -89 -148 -144 -152 -257 -312 -393 -557 -75 -136 -88
-153 -201 -265 l-120 -120 14 50 c294 981 632 2095 637 2095 3 0 29 -48 57
-107z m1695 -809 c20 -4 37 -11 37 -18 0 -6 -183 -128 -408 -270 -948 -604
-1742 -1107 -1756 -1112 -27 -10 126 315 251 532 319 557 677 811 1228 874 82
9 580 4 648 -6z"/>
<path d="M10354 8416 c-64 -20 -111 -62 -141 -124 l-28 -57 0 -1565 0 -1565
23 -104 c46 -206 127 -367 246 -486 85 -84 163 -134 271 -171 71 -25 95 -28
210 -28 128 -1 132 0 197 32 39 19 80 49 98 70 87 105 72 288 -32 377 -48 41
-106 55 -223 55 -46 0 -95 4 -108 9 -60 23 -123 118 -154 233 -16 58 -18 199
-23 1618 -5 1500 -6 1557 -24 1585 -31 49 -69 86 -111 107 -49 26 -146 32
-201 14z"/>
<path d="M9073 8340 c-98 -20 -192 -94 -238 -187 -26 -52 -29 -69 -30 -153 0
-88 3 -101 33 -162 101 -206 352 -255 521 -103 22 21 55 67 73 103 30 60 33
75 33 157 0 76 -4 98 -26 146 -37 78 -90 134 -163 168 -68 33 -140 44 -203 31z"/>
<path d="M7155 8111 c-50 -13 -90 -38 -125 -77 -66 -75 -65 -68 -68 -516 l-3
-408 -136 0 c-156 0 -197 -9 -254 -59 -54 -46 -79 -100 -79 -176 0 -99 49
-177 135 -216 33 -15 66 -19 187 -19 l147 0 4 -732 c3 -634 6 -743 20 -808 49
-221 139 -393 278 -532 181 -180 407 -266 680 -256 101 3 123 7 172 32 103 50
155 144 144 262 -10 101 -56 177 -132 217 -33 17 -66 21 -196 27 -142 5 -160
8 -211 33 -65 32 -147 115 -183 187 -61 120 -60 110 -60 870 l0 695 260 5
c246 5 262 6 303 28 145 77 157 302 21 397 -20 14 -51 30 -70 35 -19 6 -143
10 -276 10 l-243 0 0 399 c0 430 -2 445 -55 515 -51 67 -177 109 -260 87z"/>
<path d="M15367 8104 c-63 -20 -128 -84 -150 -149 -15 -42 -17 -102 -17 -447
l0 -398 -142 0 c-154 -1 -194 -9 -252 -54 -106 -81 -109 -273 -5 -361 53 -44
76 -49 239 -55 l155 -5 6 -745 c5 -665 7 -753 23 -819 49 -207 144 -380 282
-512 86 -81 143 -121 247 -169 132 -61 199 -74 382 -74 180 -1 203 5 277 72
58 52 78 101 78 192 0 88 -27 155 -81 207 -51 48 -81 56 -249 63 -143 6 -159
8 -209 34 -108 56 -185 161 -221 302 -19 73 -20 112 -20 766 l0 688 253 0
c286 0 302 4 369 78 100 111 68 294 -65 365 -40 21 -56 22 -299 25 l-258 3 0
388 c0 452 -2 464 -80 541 -73 74 -161 95 -263 64z"/>
<path d="M5704 7239 c-233 -18 -465 -123 -636 -287 l-68 -65 0 55 c0 124 -65
232 -155 257 -50 14 -148 14 -196 1 -52 -15 -113 -72 -138 -129 l-21 -50 2
-1273 3 -1273 23 -43 c48 -90 158 -135 279 -115 82 14 132 48 169 116 l29 52
5 880 c5 691 9 889 19 920 45 136 142 262 256 334 188 119 405 154 720 116
140 -17 154 -17 206 -2 69 21 111 64 134 139 34 117 4 200 -102 275 -103 73
-310 109 -529 92z"/>
<path d="M2155 7214 c-602 -107 -1063 -619 -1134 -1257 -59 -530 114 -1022
473 -1346 171 -154 360 -250 586 -298 118 -25 382 -24 498 1 243 52 433 152
611 322 l88 84 5 -113 c4 -101 7 -118 33 -166 48 -87 122 -131 221 -131 31 0
74 5 96 12 55 16 121 78 146 136 21 49 21 60 22 743 1 750 -2 790 -55 984 -34
122 -57 182 -122 306 -198 383 -563 654 -972 723 -119 20 -384 20 -496 0z
m434 -486 c310 -57 595 -348 676 -689 58 -248 32 -530 -70 -746 -197 -420
-647 -613 -1082 -464 -394 135 -645 578 -595 1048 27 257 116 455 278 617 207
206 491 290 793 234z"/>
<path d="M12769 7219 c-436 -64 -815 -348 -1022 -764 -206 -415 -209 -962 -7
-1392 129 -276 369 -525 625 -648 186 -90 323 -120 550 -119 115 0 184 5 245
18 241 50 433 153 616 328 l81 78 5 -107 c7 -157 50 -238 153 -284 54 -25 166
-25 220 0 51 23 118 98 133 148 15 51 18 1387 2 1491 -17 123 -40 219 -71 310
-173 496 -582 855 -1068 936 -102 17 -362 20 -462 5z m441 -500 c195 -50 374
-180 494 -359 199 -297 230 -725 76 -1057 -165 -354 -471 -541 -849 -520 -327
19 -594 206 -742 521 -127 273 -127 649 2 925 128 276 395 475 686 511 93 11
242 2 333 -21z"/>
<path d="M18036 7219 c-269 -39 -549 -186 -735 -385 -215 -230 -345 -531 -380
-883 -84 -821 368 -1486 1111 -1633 150 -29 409 -32 541 -5 313 63 665 246
732 381 40 81 31 151 -33 241 -46 65 -122 100 -202 92 -64 -6 -103 -23 -176
-78 -71 -55 -227 -126 -341 -156 -82 -22 -119 -26 -228 -25 -80 0 -158 6 -202
16 -288 63 -516 247 -643 520 -33 69 -80 220 -80 255 0 8 281 11 973 11 926 0
974 1 1012 19 49 23 99 74 119 123 19 44 21 187 6 323 -74 641 -458 1090
-1010 1180 -103 16 -363 19 -464 4z m459 -489 c202 -64 346 -192 446 -395 42
-86 99 -265 99 -311 0 -12 -131 -14 -815 -14 -801 0 -815 0 -815 19 0 29 48
176 80 247 107 237 319 411 567 465 122 26 336 21 438 -11z"/>
<path d="M9012 7184 c-57 -28 -102 -80 -124 -142 -10 -30 -13 -285 -13 -1282
l0 -1245 30 -60 c37 -74 93 -119 171 -136 149 -33 285 58 314 210 13 72 14
2383 0 2466 -13 78 -53 142 -114 180 -42 26 -61 30 -130 33 -72 3 -87 0 -134
-24z"/>
</g>
</svg>
