<?xml version="1.0" standalone="no"?>
<!DOCTYPE svg PUBLIC "-//W3C//DTD SVG 20010904//EN"
 "http://www.w3.org/TR/2001/REC-SVG-20010904/DTD/svg10.dtd">
<svg version="1.0" xmlns="http://www.w3.org/2000/svg"
 width="2824.000000pt" height="2000.000000pt" viewBox="0 0 2824.000000 2000.000000"
 preserveAspectRatio="xMidYMid meet">

<g transform="translate(0.000000,2000.000000) scale(0.100000,-0.100000)"
fill="#000000" stroke="none">
<path d="M14173 18128 c-22 -34 -79 -104 -127 -155 -387 -409 -1160 -796
-2171 -1087 -249 -71 -894 -243 -1355 -361 -102 -26 -241 -62 -310 -80 -69
-18 -321 -84 -560 -145 -1422 -366 -2181 -583 -2765 -790 -541 -193 -767 -315
-1007 -548 -159 -155 -252 -292 -309 -460 -30 -89 -33 -108 -33 -222 -1 -105
3 -136 22 -194 45 -134 104 -226 214 -332 70 -68 175 -150 182 -143 2 2 16 29
31 59 187 371 601 843 1015 1156 455 345 955 576 1585 733 528 131 993 208
2126 351 778 98 1029 133 1334 185 725 124 1296 292 1707 502 303 154 497 381
575 670 24 89 27 115 27 283 0 154 -4 201 -22 283 -22 101 -81 288 -105 333
l-14 26 -40 -64z"/>
<path d="M20507 17586 c-178 -60 -351 -239 -550 -568 -313 -517 -561 -1317
-751 -2428 -38 -219 -49 -288 -100 -640 l-33 -225 -91 -215 c-247 -588 -427
-919 -571 -1053 -72 -66 -118 -81 -159 -50 -36 27 -50 75 -51 176 -2 153 37
361 145 787 36 140 96 377 134 525 132 521 180 789 180 1015 0 224 -30 294
-152 354 -213 105 -457 17 -743 -269 -290 -289 -540 -696 -771 -1255 -24 -58
-44 -97 -44 -88 0 23 47 254 71 353 65 257 170 573 274 825 30 74 57 139 58
144 2 9 -51 27 -158 53 -102 25 -289 23 -372 -4 -231 -76 -331 -251 -472 -828
-60 -246 -131 -635 -175 -966 -24 -177 -28 -192 -83 -325 -76 -186 -256 -544
-338 -674 -133 -210 -260 -350 -359 -396 -114 -53 -184 -13 -229 130 -19 62
-22 92 -21 236 2 367 125 859 344 1375 95 225 334 675 441 832 16 23 29 46 29
51 0 5 -35 25 -77 45 -228 105 -415 115 -561 30 -109 -64 -242 -231 -313 -391
-18 -40 -35 -72 -38 -71 -3 0 -23 35 -43 77 -207 431 -653 419 -1123 -30 -356
-340 -600 -781 -739 -1333 -66 -265 -96 -495 -96 -750 l0 -140 -63 -130 c-235
-480 -475 -727 -596 -611 -49 47 -66 112 -65 251 0 179 23 302 170 930 149
636 190 889 181 1140 -9 269 -66 398 -209 476 -60 33 -67 34 -168 34 -97 0
-110 -2 -172 -32 -91 -43 -147 -83 -236 -167 -212 -201 -441 -554 -697 -1071
-105 -213 -248 -526 -295 -643 -7 -18 -14 -31 -16 -29 -5 5 71 414 111 592
208 929 548 1924 979 2857 l35 77 -37 10 c-20 6 -75 15 -121 20 -337 37 -648
-102 -830 -373 -290 -430 -860 -2517 -1010 -3701 -85 -668 -26 -951 223 -1070
87 -40 148 -54 287 -62 l107 -6 17 79 c198 925 614 1984 980 2493 59 83 239
281 255 281 4 0 2 -21 -6 -47 -30 -97 -94 -363 -128 -528 -116 -565 -165
-1030 -145 -1385 29 -542 201 -768 540 -708 292 52 610 332 909 801 71 110 90
133 90 105 0 -7 20 -53 44 -103 119 -244 347 -375 566 -324 115 26 277 134
401 267 131 140 302 386 413 591 l51 96 6 -85 c26 -348 157 -538 407 -586 138
-27 270 15 429 135 197 149 471 493 671 843 l49 87 7 -110 c17 -264 107 -435
270 -512 67 -32 143 -54 218 -63 l56 -6 7 58 c70 633 311 1468 577 1998 128
254 388 636 535 783 90 91 133 91 133 1 0 -91 -22 -175 -154 -598 -226 -720
-269 -1386 -111 -1715 80 -168 214 -255 390 -255 173 0 354 97 551 295 146
147 345 422 459 633 15 28 31 52 34 52 3 0 14 -33 24 -73 53 -213 188 -364
368 -412 54 -15 109 -20 109 -10 0 3 18 76 41 163 256 993 653 1950 1047 2522
269 392 485 540 544 372 15 -45 15 -201 -1 -292 -35 -194 -149 -456 -289 -666
-193 -288 -512 -619 -768 -797 -41 -28 -74 -55 -74 -61 0 -13 83 -165 164
-296 347 -570 930 -1237 1429 -1638 140 -112 347 -247 473 -308 158 -77 276
-106 429 -108 144 -1 198 11 325 71 81 39 107 59 186 137 80 81 98 105 142
196 28 58 58 134 67 170 18 69 35 250 24 250 -4 0 -12 -7 -20 -16 -7 -8 -31
-25 -53 -37 -37 -20 -56 -22 -176 -21 -118 0 -147 4 -225 28 -322 98 -727 322
-1135 626 -519 387 -904 781 -1035 1059 -29 63 -30 64 -10 77 265 184 554 484
792 820 99 139 221 340 286 471 269 538 240 873 -83 970 -76 23 -227 23 -305
-1 -327 -99 -670 -449 -1015 -1036 -148 -252 -427 -826 -515 -1063 -10 -26
-19 -46 -21 -44 -12 12 172 816 262 1147 269 985 621 1802 957 2217 l66 83
-52 30 c-196 112 -375 146 -520 96z m-5829 -3715 c42 -21 102 -87 137 -150
l21 -36 -23 -80 c-68 -232 -161 -626 -203 -861 -30 -164 -35 -183 -113 -365
-154 -361 -323 -622 -441 -678 -184 -90 -283 127 -255 560 36 569 258 1204
519 1483 138 147 245 185 358 127z"/>
<path d="M10090 15564 c-257 -37 -420 -109 -572 -252 -245 -231 -407 -609
-562 -1306 -25 -110 -106 -505 -180 -876 -172 -860 -252 -1226 -380 -1732
-148 -581 -368 -1297 -496 -1613 -218 -537 -485 -915 -785 -1111 -245 -160
-498 -179 -672 -50 -75 55 -115 103 -158 191 -61 122 -77 207 -78 395 -1 133
3 187 21 278 92 459 386 920 770 1206 90 67 247 154 317 176 22 7 44 16 49 21
6 5 -6 31 -29 64 -192 280 -593 340 -970 147 -458 -236 -747 -784 -747 -1417
0 -180 18 -310 63 -471 139 -498 511 -876 964 -980 123 -29 360 -26 480 5 296
77 533 237 802 544 522 594 948 1485 1327 2772 131 446 276 1005 451 1745 208
880 333 1296 510 1697 94 214 225 433 309 517 14 14 15 20 6 26 -33 20 -345
37 -440 24z"/>
<path d="M20339 12389 c-269 -30 -478 -410 -708 -1289 -192 -734 -288 -1601
-279 -2525 l3 -340 175 0 175 0 3 40 c1 22 16 135 33 250 106 740 345 1596
679 2430 93 233 111 276 205 490 82 184 138 304 235 498 l90 177 -34 38 c-47
51 -171 124 -305 178 -123 50 -187 63 -272 53z"/>
<path d="M18001 9884 c-206 -55 -391 -245 -526 -539 -71 -155 -129 -350 -200
-665 -90 -404 -338 -1049 -540 -1405 -115 -203 -221 -339 -296 -381 -95 -53
-169 44 -155 201 14 149 61 321 233 850 97 299 109 338 151 490 102 362 152
629 168 900 13 225 -36 337 -176 404 -52 24 -64 26 -200 25 -118 0 -161 -4
-230 -23 -82 -22 -250 -77 -257 -85 -2 -2 7 -21 21 -41 42 -62 51 -108 50
-280 0 -238 -31 -443 -150 -985 -51 -232 -67 -271 -185 -450 -93 -139 -212
-269 -311 -337 -87 -60 -123 -74 -114 -46 38 122 98 444 122 643 20 174 15
485 -10 590 -59 255 -170 394 -358 451 -101 31 -228 24 -318 -16 -152 -69
-284 -214 -392 -430 -108 -214 -164 -442 -175 -705 -9 -233 28 -428 114 -593
78 -151 271 -303 455 -359 48 -14 78 -28 78 -37 0 -7 -26 -66 -57 -130 -222
-448 -632 -842 -929 -893 -202 -34 -332 82 -392 352 -25 110 -24 484 1 635 98
583 412 1246 763 1613 52 53 55 49 -81 116 -108 53 -168 68 -278 68 -260 0
-508 -172 -732 -507 -181 -273 -315 -635 -371 -1007 -24 -164 -30 -517 -10
-668 45 -341 151 -579 334 -752 151 -142 328 -213 564 -225 325 -17 626 117
919 407 241 239 418 509 569 870 l57 134 104 36 c57 20 124 47 149 59 59 31
209 127 237 154 13 11 25 19 27 16 2 -2 0 -40 -4 -84 -15 -133 -11 -440 5
-550 64 -424 267 -569 580 -413 314 158 635 618 866 1243 l48 130 1 -190 c0
-307 27 -459 112 -634 89 -185 228 -296 423 -336 188 -39 415 27 549 158 51
50 106 128 106 150 0 3 -30 10 -66 17 -215 41 -338 264 -375 680 -14 163 -6
542 16 744 66 604 247 1139 501 1483 30 40 54 77 54 81 0 9 -127 54 -202 71
-65 15 -222 13 -287 -5z m-3008 -1144 c49 -39 62 -98 61 -275 -1 -197 -27
-389 -111 -828 l-36 -188 -26 6 c-97 24 -214 123 -265 222 -55 109 -71 193
-71 368 1 182 16 277 70 416 38 100 72 158 124 213 73 78 198 110 254 66z"/>
<path d="M10545 9735 c-157 -42 -307 -138 -404 -258 l-42 -51 57 -23 c151 -61
242 -180 284 -370 63 -285 -17 -916 -251 -1976 -148 -670 -190 -938 -190
-1222 0 -173 12 -270 46 -370 56 -164 158 -270 303 -315 299 -93 599 158 913
765 43 83 87 175 99 205 38 97 39 76 4 -72 -268 -1120 -577 -2034 -921 -2721
-321 -644 -656 -1114 -1106 -1553 -525 -514 -839 -684 -1260 -684 -205 0 -351
37 -529 133 -437 235 -689 721 -665 1282 12 270 69 493 198 780 227 501 540
913 899 1183 222 168 505 294 743 332 49 8 77 17 77 26 0 26 -103 165 -163
219 -75 68 -196 129 -298 151 -109 23 -314 14 -436 -20 -380 -105 -682 -307
-954 -638 -402 -491 -639 -1158 -639 -1797 0 -771 342 -1377 970 -1718 166
-91 415 -182 605 -223 129 -28 411 -38 552 -20 365 45 758 222 1133 507 197
151 504 450 699 683 1011 1207 1820 3153 2222 5348 72 391 142 644 264 952 40
102 73 186 72 187 -10 9 -294 33 -397 33 -160 0 -247 -17 -331 -61 -198 -106
-292 -320 -435 -992 -51 -239 -248 -736 -460 -1160 -147 -294 -257 -469 -368
-586 -89 -93 -143 -113 -182 -70 -16 18 -19 37 -19 138 1 190 41 371 260 1186
199 739 286 1149 341 1615 24 202 25 571 1 695 -43 222 -121 359 -243 431 -98
58 -326 83 -449 49z"/>
<path d="M19340 7854 c-115 -41 -230 -169 -306 -339 -79 -178 -117 -342 -118
-505 0 -141 22 -209 91 -277 66 -66 138 -96 232 -95 251 0 428 224 497 630 22
130 16 306 -15 383 -59 154 -245 252 -381 203z"/>
</g>
</svg>
