<?xml version="1.0" standalone="no"?>
<!DOCTYPE svg PUBLIC "-//W3C//DTD SVG 20010904//EN"
 "http://www.w3.org/TR/2001/REC-SVG-20010904/DTD/svg10.dtd">
<svg version="1.0" xmlns="http://www.w3.org/2000/svg"
 width="2150.000000pt" height="1518.000000pt" viewBox="0 0 2150.000000 1518.000000"
 preserveAspectRatio="xMidYMid meet">

<g transform="translate(0.000000,1518.000000) scale(0.100000,-0.100000)"
fill="#000000" stroke="none">
<path d="M0 7590 l0 -7590 10750 0 10750 0 0 7590 0 7590 -10750 0 -10750 0 0
-7590z m10414 7509 c56 -16 113 -73 135 -139 45 -129 51 -349 16 -541 -50
-269 -188 -618 -363 -923 l-45 -79 12 -61 c16 -80 63 -196 101 -251 45 -65 89
-88 156 -83 118 10 221 127 395 450 84 158 138 199 189 148 29 -29 25 -54 -20
-114 -74 -97 -130 -250 -130 -352 0 -70 13 -100 52 -124 67 -41 141 -19 214
64 46 53 153 251 175 326 22 72 88 91 124 36 15 -22 13 -32 -14 -132 -43 -152
-113 -456 -107 -462 7 -6 194 132 275 202 62 54 138 136 169 184 51 78 158 21
116 -61 -34 -66 -244 -258 -425 -389 l-176 -127 -12 -78 c-6 -43 -18 -141 -27
-218 -60 -547 -213 -855 -425 -855 -251 0 -310 234 -145 576 96 199 211 359
379 529 l110 110 23 110 c30 143 30 142 -8 109 -84 -70 -201 -85 -297 -38 -56
28 -108 89 -118 137 -3 15 -6 27 -7 27 -1 0 -29 -27 -64 -59 -87 -83 -175
-125 -261 -125 -132 1 -219 69 -301 237 -38 80 -49 96 -54 79 -14 -44 -111
-179 -167 -233 -135 -130 -334 -187 -510 -145 -66 15 -139 55 -167 91 l-19 24
-39 -48 c-80 -99 -180 -149 -274 -138 -59 7 -98 26 -151 74 -22 20 -41 34 -43
32 -2 -2 -18 -32 -36 -67 -95 -180 -294 -226 -427 -99 -30 28 -33 29 -39 11
-87 -248 -173 -335 -331 -335 -82 0 -156 33 -211 96 l-39 44 -13 -57 c-43
-195 -164 -358 -325 -438 -125 -62 -247 -56 -355 16 l-45 30 -8 -52 c-33 -218
-95 -339 -222 -435 -132 -101 -270 -133 -376 -89 -14 6 -17 -3 -21 -61 -6 -86
-34 -148 -89 -201 -51 -50 -95 -66 -159 -60 -82 8 -136 43 -261 169 -122 124
-151 142 -178 115 -39 -40 -9 -207 90 -500 68 -201 69 -224 18 -276 -24 -23
-39 -30 -71 -30 -38 0 -45 5 -131 98 -139 148 -315 322 -326 322 -30 0 15
-160 62 -222 15 -19 38 -65 53 -104 48 -125 34 -267 -39 -382 l-34 -54 23 -56
c43 -110 40 -209 -10 -318 -54 -117 -176 -204 -292 -207 -44 -2 -53 -5 -48
-17 41 -98 57 -164 62 -259 6 -123 -6 -188 -54 -288 -59 -124 -159 -192 -296
-201 -92 -5 -159 9 -256 55 -90 42 -177 126 -218 209 -26 52 -29 70 -29 150 0
83 2 94 30 139 55 89 142 129 240 111 52 -10 125 -82 125 -125 0 -79 -59 -98
-116 -36 -41 45 -83 47 -124 7 -53 -54 -49 -141 10 -228 78 -113 258 -180 387
-143 63 17 133 87 157 154 26 74 31 177 12 265 -19 93 -89 234 -157 318 -70
87 -101 159 -107 254 -7 112 11 158 60 158 44 0 58 -27 58 -110 0 -62 5 -86
26 -128 66 -132 215 -193 328 -135 100 52 154 203 110 312 l-16 40 -47 -24
c-136 -68 -304 -45 -395 55 -42 47 -60 103 -46 149 37 131 186 168 355 88 41
-20 90 -48 108 -62 19 -14 37 -25 41 -25 4 0 19 26 33 57 44 95 31 223 -27
271 -25 22 -85 178 -101 263 -15 83 -6 130 31 167 37 37 71 44 134 25 46 -13
68 -31 215 -181 91 -92 162 -160 159 -152 -66 182 -128 437 -128 527 0 124 82
220 178 209 66 -9 99 -31 216 -148 141 -142 198 -171 255 -132 79 56 80 240 1
455 -15 43 -28 97 -28 121 1 65 -42 151 -102 205 -62 56 -80 104 -56 151 39
75 134 44 186 -59 25 -48 26 -48 175 -114 196 -86 238 -110 278 -154 49 -54
69 -104 69 -175 l0 -58 40 38 c113 109 148 336 87 574 -56 220 -5 385 142 459
80 40 136 41 210 4 70 -36 99 -84 99 -165 0 -65 -22 -98 -64 -98 -35 0 -56 26
-56 69 0 59 -31 91 -87 91 -39 0 -51 -5 -83 -38 -62 -62 -75 -150 -40 -265 25
-80 84 -161 151 -207 42 -28 62 -35 115 -38 55 -4 72 0 120 23 78 38 152 116
196 206 47 94 67 177 75 309 6 104 5 107 -36 234 -23 71 -41 140 -39 154 2 14
16 34 31 46 26 19 30 19 55 5 23 -12 36 -42 89 -194 103 -299 157 -381 256
-392 147 -17 244 187 266 561 9 141 27 223 59 259 18 20 61 22 86 4 22 -16 23
-42 2 -127 -29 -121 -16 -293 30 -370 66 -113 199 -92 267 42 42 82 45 152 13
324 -14 78 -26 151 -26 163 0 28 34 61 63 61 48 0 58 -20 87 -168 32 -163 48
-213 83 -270 125 -196 321 -72 393 250 10 40 30 111 45 158 38 116 44 174 25
229 -37 101 -9 181 63 181 27 0 44 -7 62 -26 20 -22 24 -37 28 -107 4 -90 3
-88 141 -287 29 -41 66 -103 82 -138 26 -55 30 -71 26 -131 -3 -55 -10 -78
-35 -119 l-32 -51 32 6 c150 27 293 177 381 400 35 88 36 95 27 155 -47 298
-32 766 35 1097 56 272 143 444 248 492 48 22 67 23 120 8z m-2986 -1553 c27
-30 32 -43 32 -84 0 -64 -34 -114 -94 -137 -59 -23 -107 -13 -153 29 -30 27
-36 41 -40 82 -12 137 161 212 255 110z m5403 -293 c41 -24 63 -75 55 -127 -8
-47 -66 -158 -172 -329 -41 -66 -74 -120 -74 -122 0 -2 56 32 124 75 69 42
171 102 228 131 101 53 104 54 190 54 72 0 91 -3 115 -21 68 -50 89 -122 59
-204 -7 -20 -47 -93 -89 -164 -42 -70 -77 -129 -77 -131 0 -2 60 33 133 79 72
46 152 93 177 106 164 83 296 79 377 -13 63 -72 53 -149 -40 -290 -74 -113
-117 -202 -117 -243 0 -40 40 -81 87 -90 93 -17 218 19 359 106 137 85 130 81
155 70 13 -5 31 -14 39 -19 8 -5 50 -13 93 -19 156 -20 290 -115 336 -238 25
-66 27 -107 5 -128 -31 -32 -104 -9 -104 33 0 32 -48 118 -81 145 -80 68 -199
88 -304 53 -107 -36 -205 -144 -205 -225 0 -44 50 -99 103 -113 81 -22 205 11
290 75 19 14 46 26 60 26 31 0 67 -31 67 -58 0 -10 -25 -53 -55 -97 -60 -85
-90 -168 -80 -214 6 -29 44 -70 82 -90 67 -34 226 -19 395 38 81 27 90 28 189
21 66 -5 125 -16 161 -30 65 -24 168 -111 168 -141 0 -10 3 -19 6 -19 3 0 42
33 85 74 250 235 582 451 793 515 137 42 223 37 286 -15 245 -207 -289 -617
-1100 -845 -189 -53 -178 -47 -247 -149 -108 -160 -106 -273 5 -323 67 -30
217 -35 353 -11 57 10 142 18 189 18 72 1 93 -3 134 -24 111 -57 163 -176 120
-278 -34 -82 -111 -132 -215 -140 -88 -6 -156 11 -256 63 -93 49 -93 49 -93
-44 0 -44 7 -72 31 -119 67 -134 200 -191 447 -192 109 0 124 -2 142 -20 26
-26 26 -72 0 -95 -18 -16 -34 -17 -162 -12 -230 10 -356 53 -458 156 -139 141
-165 341 -65 493 14 21 25 39 25 41 0 2 -33 7 -72 10 -185 16 -295 96 -327
238 -13 57 3 137 42 219 18 36 33 68 35 71 2 4 -46 4 -105 2 -135 -7 -204 10
-264 64 -79 71 -112 189 -74 262 l14 28 -88 5 c-140 8 -238 65 -282 163 -20
43 -25 130 -10 180 l8 30 -101 0 c-91 0 -107 3 -159 29 -103 50 -164 168 -140
270 l10 44 -97 -5 c-84 -5 -102 -3 -145 16 -104 46 -154 110 -155 198 0 70 47
178 132 301 47 68 71 129 59 151 -36 67 -169 18 -462 -170 -170 -109 -209
-129 -253 -129 -26 0 -40 7 -60 31 -14 17 -26 37 -26 45 0 28 30 85 144 277
124 205 136 240 91 257 -49 19 -182 -46 -454 -218 -116 -74 -142 -86 -187 -90
-49 -4 -56 -2 -84 26 -20 20 -30 40 -30 60 0 19 47 108 145 272 80 134 145
251 145 261 0 16 -4 17 -27 8 -36 -13 -84 -43 -157 -96 -32 -24 -68 -43 -80
-43 -35 0 -66 28 -66 60 0 34 19 54 114 117 130 87 233 113 297 76z m6835
-1748 c89 -181 125 -324 125 -490 0 -134 -9 -192 -47 -310 -25 -76 -32 -85
-133 -190 -145 -149 -274 -324 -389 -525 -27 -48 -98 -124 -239 -254 l-41 -39
224 679 c123 374 268 813 321 976 53 163 101 294 106 291 5 -3 38 -65 73 -138z
m1648 -694 l71 -6 -585 -344 c-322 -189 -589 -348 -595 -354 -13 -13 -21 -18
624 357 299 174 545 315 546 314 12 -13 -75 -377 -122 -512 -161 -465 -413
-692 -868 -783 -74 -15 -140 -18 -375 -18 -160 1 -329 6 -385 13 -156 19 -420
55 -424 58 -5 4 149 297 219 414 352 594 745 838 1410 874 79 4 385 -4 484
-13z m-11478 -1334 c50 -21 83 -48 106 -86 l23 -36 5 -1430 5 -1430 22 -65
c29 -85 76 -155 126 -188 36 -24 52 -27 166 -33 166 -8 209 -27 251 -109 47
-92 34 -191 -35 -256 -54 -53 -117 -74 -231 -81 -305 -18 -577 166 -694 468
-68 177 -64 65 -67 1642 -3 991 0 1440 7 1468 14 50 64 107 115 130 47 22 158
25 201 6z m-1273 -87 c113 -53 177 -147 177 -260 0 -37 -7 -87 -16 -113 -21
-63 -83 -130 -152 -164 -49 -24 -69 -28 -142 -28 -100 0 -154 21 -221 88 -197
196 -36 523 248 502 34 -2 81 -14 106 -25z m-1986 -192 c60 -15 137 -87 152
-143 7 -26 11 -173 11 -407 l0 -368 267 0 c251 0 269 -1 310 -21 24 -12 56
-37 71 -57 24 -31 27 -44 27 -112 0 -68 -3 -81 -27 -112 -15 -20 -47 -45 -71
-57 -41 -20 -59 -21 -311 -21 l-267 0 3 -667 c3 -664 3 -668 26 -727 46 -123
127 -216 232 -265 50 -23 71 -26 215 -31 188 -6 220 -18 272 -93 79 -117 43
-260 -80 -325 -51 -26 -56 -27 -217 -27 -139 1 -178 4 -248 23 -315 85 -544
315 -634 637 -22 78 -22 95 -28 775 l-5 695 -170 5 c-188 6 -207 11 -263 74
-55 63 -53 167 4 236 50 58 73 65 259 70 l170 5 5 390 c5 386 5 390 28 427 55
88 157 125 269 96z m8320 -24 c24 -14 56 -44 71 -66 l27 -42 5 -390 5 -391
275 -5 c302 -5 311 -7 364 -70 57 -69 59 -173 4 -236 -60 -68 -64 -68 -368
-74 l-275 -5 -3 -595 c-3 -619 2 -716 38 -813 43 -113 144 -218 250 -257 19
-7 107 -16 195 -20 172 -7 197 -14 247 -67 15 -15 34 -45 42 -65 20 -46 21
-138 3 -181 -22 -50 -88 -104 -154 -123 -79 -23 -304 -15 -418 15 -256 68
-463 242 -574 483 -86 188 -91 238 -91 1000 l0 628 -162 0 c-184 0 -225 12
-276 78 -24 31 -27 44 -27 112 0 68 3 81 27 112 51 66 92 78 276 78 l161 0 3
388 c3 428 1 413 71 480 69 66 196 78 284 26z m-9564 -789 c168 -36 277 -123
277 -222 0 -91 -46 -156 -127 -179 -51 -15 -66 -15 -202 1 -183 22 -376 16
-501 -15 -47 -11 -131 -43 -187 -70 -162 -79 -266 -196 -319 -360 -16 -50 -18
-123 -23 -850 -7 -883 -2 -830 -73 -884 -90 -67 -253 -58 -326 17 -64 66 -62
17 -62 1247 0 1254 -4 1190 71 1253 64 55 159 71 255 42 95 -28 134 -94 134
-225 0 -49 4 -90 8 -90 4 0 26 19 47 41 146 153 401 278 630 308 92 13 312 5
398 -14z m-3363 -14 c483 -96 862 -426 1015 -884 63 -189 65 -221 65 -929 0
-362 -4 -648 -9 -662 -16 -39 -73 -98 -116 -117 -26 -12 -64 -19 -106 -19 -91
0 -161 36 -204 104 -28 46 -30 55 -33 183 l-4 134 -68 -69 c-171 -174 -389
-292 -630 -343 -126 -26 -379 -32 -500 -11 -542 94 -958 509 -1056 1053 -24
128 -24 382 -1 504 51 263 158 472 344 665 220 230 504 369 833 410 109 13
358 3 470 -19z m10621 -1 c188 -36 339 -98 500 -205 269 -179 467 -463 544
-780 39 -159 46 -312 43 -910 -3 -603 -2 -586 -64 -649 -97 -97 -293 -86 -367
22 -35 50 -46 107 -47 229 l0 101 -81 -79 c-468 -458 -1247 -479 -1748 -45
-222 192 -374 463 -427 761 -23 132 -23 366 -1 492 47 260 156 476 336 666
224 235 517 380 846 417 120 13 344 4 466 -20z m5265 6 c170 -31 305 -83 437
-169 326 -213 514 -566 534 -1002 5 -122 4 -145 -12 -175 -24 -49 -44 -69 -90
-94 l-40 -21 -992 -3 c-936 -2 -993 -4 -993 -20 0 -10 9 -51 21 -92 85 -307
338 -550 664 -637 89 -23 118 -26 265 -26 146 -1 176 2 261 25 131 35 233 80
332 144 96 62 156 78 228 63 86 -19 168 -114 169 -197 0 -99 -127 -200 -385
-305 -317 -129 -617 -157 -950 -87 -493 103 -878 461 -995 924 -101 398 -36
820 174 1136 114 170 291 327 474 419 128 64 320 117 497 135 75 8 320 -3 401
-18z m-9292 -30 c29 -17 56 -44 73 -74 l28 -47 3 -1133 c2 -807 -1 -1146 -9
-1175 -16 -62 -91 -131 -159 -147 -106 -26 -214 12 -268 92 l-27 42 -3 1145
c-2 795 0 1157 8 1183 18 64 72 114 150 139 50 17 155 4 204 -25z"/>
<path d="M10329 14975 c-123 -67 -235 -690 -213 -1182 4 -84 11 -153 15 -153
24 0 169 331 233 530 68 211 90 336 90 515 1 172 -16 249 -60 284 -31 24 -31
24 -65 6z"/>
<path d="M9328 13327 c-15 -45 -34 -111 -43 -146 -9 -35 -25 -83 -35 -107
l-19 -44 22 0 c13 0 40 -9 62 -20 129 -66 239 57 176 196 -15 33 -98 157 -131
196 -3 5 -18 -29 -32 -75z"/>
<path d="M11048 12461 c-110 -122 -233 -310 -293 -449 -83 -190 -87 -325 -10
-360 124 -57 236 117 310 481 25 127 59 376 52 384 -3 2 -29 -23 -59 -56z"/>
<path d="M6166 11908 c8 -35 28 -122 46 -195 31 -129 32 -132 52 -117 11 8 39
14 61 14 80 0 142 66 132 141 -10 76 -60 118 -218 185 -44 19 -82 34 -83 34
-2 0 3 -28 10 -62z"/>
<path d="M4714 10397 c-11 -31 2 -51 48 -75 36 -18 63 -24 110 -24 65 0 123
16 114 30 -3 5 -35 24 -72 42 -80 39 -189 54 -200 27z"/>
<path d="M7282 13488 c-28 -28 -7 -78 33 -78 27 0 45 18 45 45 0 27 -18 45
-45 45 -12 0 -26 -5 -33 -12z"/>
<path d="M16460 11624 c-135 -29 -434 -199 -627 -355 -103 -84 -295 -260 -290
-266 7 -7 281 85 396 133 224 94 437 223 560 340 74 69 98 112 78 137 -19 24
-47 26 -117 11z"/>
<path d="M15035 11192 c-66 -23 -142 -76 -166 -115 -25 -43 -24 -97 3 -132 47
-60 123 -68 308 -34 l115 22 72 76 c63 67 69 76 50 79 -12 2 -37 18 -56 34
-88 77 -225 107 -326 70z"/>
<path d="M15779 10265 c-92 -33 -158 -82 -144 -105 3 -6 30 -22 58 -37 40 -20
70 -27 132 -30 91 -5 139 12 164 59 14 24 14 30 -2 63 -29 60 -121 82 -208 50z"/>
<path d="M20158 10084 c-38 -20 -36 -28 2 -9 17 9 30 18 30 20 0 7 -1 6 -32
-11z"/>
<path d="M20094 10044 c-18 -14 -18 -15 4 -4 12 6 22 13 22 15 0 8 -5 6 -26
-11z"/>
<path d="M20044 10014 c-18 -14 -18 -15 4 -4 12 6 22 13 22 15 0 8 -5 6 -26
-11z"/>
<path d="M19924 9944 c-18 -14 -18 -15 4 -4 12 6 22 13 22 15 0 8 -5 6 -26
-11z"/>
<path d="M1573 7990 c-117 -12 -193 -35 -318 -95 -183 -89 -319 -223 -405
-400 -100 -205 -123 -468 -60 -692 91 -326 350 -567 685 -638 105 -22 303 -23
410 0 151 31 303 109 416 213 221 204 329 506 289 812 -29 229 -127 421 -286
568 -193 178 -450 260 -731 232z"/>
<path d="M12230 7994 c-419 -32 -752 -319 -834 -718 -19 -90 -22 -302 -6 -386
50 -263 204 -487 428 -619 143 -85 292 -123 482 -123 255 0 454 75 627 236
131 122 221 275 265 452 31 126 31 340 0 468 -99 398 -424 666 -837 689 -44 2
-100 2 -125 1z"/>
<path d="M17407 7994 c-213 -38 -388 -138 -517 -296 -64 -78 -143 -237 -168
-340 l-20 -78 850 0 850 0 -7 48 c-11 76 -63 221 -108 302 -51 89 -177 220
-260 269 -166 98 -404 134 -620 95z"/>
</g>
</svg>
