<?xml version="1.0" standalone="no"?>
<!DOCTYPE svg PUBLIC "-//W3C//DTD SVG 20010904//EN"
 "http://www.w3.org/TR/2001/REC-SVG-20010904/DTD/svg10.dtd">
<svg version="1.0" xmlns="http://www.w3.org/2000/svg"
 width="2150.000000pt" height="1518.000000pt" viewBox="0 0 2150.000000 1518.000000"
 preserveAspectRatio="xMidYMid meet">

<g transform="translate(0.000000,1518.000000) scale(0.100000,-0.100000)"
fill="#000000" stroke="none">
<path d="M10165 14316 c-35 -15 -83 -67 -119 -128 -151 -258 -225 -974 -160
-1548 l16 -146 -27 -79 c-55 -159 -118 -268 -202 -347 -56 -52 -111 -83 -166
-93 -40 -8 -46 -1 -21 26 45 50 58 192 26 277 -11 27 -64 118 -119 203 -55 85
-105 164 -111 176 -7 12 -12 55 -12 96 0 61 -4 80 -23 108 -19 28 -30 35 -63
37 -30 2 -45 -2 -58 -17 -27 -30 -32 -108 -11 -171 22 -68 16 -155 -19 -265
-14 -44 -26 -93 -26 -110 0 -41 -44 -200 -73 -266 -59 -134 -159 -191 -243
-140 -77 47 -125 150 -169 362 -21 101 -39 167 -50 180 -39 42 -105 12 -105
-47 0 -16 14 -99 31 -184 44 -223 30 -330 -56 -415 -88 -89 -189 -54 -236 80
-29 83 -42 225 -29 311 23 142 23 159 5 177 -21 21 -69 22 -89 2 -9 -9 -20
-35 -26 -58 -6 -23 -13 -49 -16 -57 -3 -8 -10 -103 -15 -210 -10 -220 -31
-334 -79 -435 -17 -35 -43 -73 -59 -84 -42 -30 -101 -37 -145 -16 -85 40 -144
154 -262 499 -19 55 -41 107 -50 118 -21 22 -67 24 -88 2 -26 -25 -19 -71 30
-209 45 -127 46 -132 46 -250 -1 -269 -95 -467 -258 -542 -101 -46 -197 -20
-291 79 -120 128 -166 315 -103 426 40 71 115 93 166 49 21 -18 28 -35 32 -75
7 -76 53 -104 103 -63 20 16 23 27 22 72 -3 130 -93 218 -222 219 -109 0 -204
-76 -240 -195 -31 -100 -28 -159 18 -330 69 -256 42 -481 -70 -591 l-39 -38 0
60 c0 75 -43 168 -99 217 -21 17 -127 77 -237 132 l-199 100 -33 58 c-59 103
-149 130 -187 57 -24 -46 -3 -96 66 -161 65 -62 118 -164 119 -228 0 -18 16
-73 35 -122 50 -124 75 -230 75 -316 0 -82 -16 -132 -51 -157 -57 -40 -117 -8
-275 145 -159 155 -227 189 -307 155 -63 -26 -107 -102 -107 -184 0 -77 74
-343 149 -532 l22 -55 -168 172 c-134 137 -179 177 -223 198 -74 34 -121 33
-162 -4 -62 -55 -47 -174 46 -377 19 -40 43 -77 53 -83 29 -15 57 -97 57 -163
-1 -40 -9 -72 -28 -112 l-28 -56 -46 34 c-134 97 -303 141 -395 102 -18 -7
-47 -30 -65 -50 -27 -31 -32 -45 -32 -87 0 -82 46 -142 150 -195 78 -39 208
-46 295 -15 86 31 87 31 106 -19 43 -111 2 -238 -97 -296 -98 -58 -227 -24
-324 84 -57 64 -80 124 -80 212 0 65 -20 93 -66 92 -34 0 -51 -22 -60 -77 -13
-93 36 -233 115 -324 134 -154 201 -300 208 -451 4 -79 2 -105 -16 -155 -25
-72 -88 -138 -147 -154 -172 -48 -413 64 -479 223 -31 73 -11 152 46 181 38
20 63 13 116 -36 49 -45 60 -47 97 -18 33 26 33 54 1 101 -84 124 -276 122
-362 -5 -136 -201 50 -492 367 -573 97 -25 229 -16 302 19 147 72 233 259 208
457 -10 87 -33 168 -64 228 -9 17 -16 33 -16 35 0 3 33 7 72 9 128 6 223 73
281 196 51 109 46 247 -13 348 l-18 31 35 54 c44 71 63 137 63 223 0 85 -31
181 -81 251 -19 26 -42 61 -51 79 -25 45 -60 153 -56 171 5 26 101 -58 273
-241 192 -203 198 -209 248 -209 31 0 45 7 68 33 43 48 40 97 -15 230 -64 156
-104 274 -132 387 -36 151 -32 195 18 195 25 0 53 -23 167 -132 153 -149 202
-180 297 -186 47 -3 70 0 101 17 83 42 133 136 133 249 0 48 2 53 18 47 76
-30 191 -21 277 22 187 93 283 245 303 484 l7 79 50 -35 c68 -49 141 -69 231
-63 95 6 166 41 256 126 55 52 78 83 113 156 44 88 75 186 75 233 0 13 1 23 3
23 2 0 30 -26 63 -58 87 -85 181 -111 288 -80 86 26 176 149 213 292 l17 65
34 -35 c54 -56 107 -78 182 -78 112 1 199 68 255 198 l28 62 40 -44 c80 -86
179 -108 284 -62 49 21 117 82 154 139 l15 24 57 -46 c37 -30 78 -53 115 -63
69 -21 187 -23 262 -5 160 39 307 171 401 363 l32 66 33 -80 c55 -138 123
-221 213 -261 35 -15 59 -18 111 -15 88 7 150 41 236 129 36 38 68 69 70 69 2
0 4 -7 4 -15 0 -9 9 -32 19 -53 77 -149 269 -176 394 -54 20 20 37 32 37 27 0
-6 -11 -68 -25 -140 l-24 -130 -62 -65 c-207 -217 -388 -509 -476 -765 -35
-102 -37 -119 -38 -225 0 -124 13 -167 67 -217 59 -55 176 -70 255 -32 168 81
285 414 343 981 11 108 23 211 27 228 5 25 37 57 167 163 267 218 446 412 446
484 0 38 -30 65 -66 61 -22 -2 -42 -21 -88 -83 -33 -44 -94 -114 -135 -155
-88 -87 -281 -246 -281 -231 0 19 61 304 100 465 39 162 39 186 6 208 -20 14
-63 8 -78 -9 -8 -10 -29 -58 -47 -108 -94 -252 -207 -405 -301 -405 -44 0 -90
29 -105 64 -42 101 12 327 115 477 45 65 50 99 20 129 -55 55 -103 3 -222
-234 -136 -272 -234 -399 -329 -427 -116 -35 -217 84 -279 332 l-21 85 79 165
c167 347 264 629 311 911 51 304 28 586 -58 705 -46 64 -136 90 -206 59z m107
-149 c9 -12 25 -49 34 -82 27 -92 25 -363 -4 -515 -43 -230 -130 -502 -235
-738 -42 -96 -52 -111 -61 -95 -18 31 -13 602 7 783 56 507 162 770 259 647z
m-963 -1790 c70 -105 91 -152 91 -210 0 -88 -46 -147 -117 -147 -15 0 -54 12
-86 27 -48 23 -57 31 -52 48 7 24 48 192 71 290 9 39 19 74 21 78 7 11 10 7
72 -86z m1665 -988 c-26 -233 -56 -390 -100 -539 -71 -233 -182 -342 -271
-266 -27 24 -28 27 -27 123 1 78 6 114 28 178 40 118 124 286 205 408 71 108
172 240 178 234 1 -2 -4 -64 -13 -138z m-4760 -434 c66 -31 130 -84 152 -126
8 -16 14 -48 14 -73 0 -36 -6 -52 -28 -77 -24 -27 -37 -32 -92 -38 -36 -4 -70
-10 -77 -14 -7 -5 -15 11 -24 46 -6 28 -23 84 -36 122 -24 69 -63 210 -63 227
0 4 21 -2 48 -16 26 -13 74 -36 106 -51z m-1430 -1509 c36 -14 82 -36 102 -50
l37 -25 -29 -11 c-49 -19 -163 -8 -219 21 -49 24 -63 45 -51 75 8 22 87 17
160 -10z"/>
<path d="M7102 12689 c-43 -28 -62 -67 -62 -127 0 -188 272 -205 288 -19 5 60
-9 96 -52 136 -38 35 -128 41 -174 10z m116 -91 c19 -19 15 -66 -7 -78 -27
-14 -37 -13 -55 6 -32 31 -14 84 29 84 12 0 26 -5 33 -12z"/>
<path d="M12568 12371 c-91 -36 -264 -166 -274 -207 -7 -29 16 -69 45 -77 25
-6 60 12 121 63 49 41 157 110 172 110 16 0 -30 -93 -165 -324 -76 -132 -140
-251 -143 -265 -13 -66 48 -120 120 -107 20 4 64 27 99 51 331 233 476 318
534 313 69 -6 61 -31 -91 -297 -115 -200 -136 -243 -136 -278 0 -33 5 -46 26
-62 47 -37 83 -28 186 43 393 273 467 316 544 316 85 0 82 -46 -12 -195 -119
-187 -156 -305 -124 -399 16 -50 91 -113 158 -132 56 -17 146 -14 198 7 24 9
25 8 17 -29 -13 -58 -6 -126 16 -169 25 -51 88 -107 137 -124 45 -15 150 -18
212 -6 41 9 42 8 33 -15 -18 -49 -22 -121 -10 -171 9 -40 23 -62 63 -102 61
-60 99 -74 222 -82 l91 -6 -13 -36 c-18 -51 -17 -109 5 -156 57 -126 173 -173
361 -146 45 7 88 15 96 18 8 3 -2 -26 -25 -69 -55 -101 -76 -184 -62 -249 31
-141 124 -207 308 -218 l102 -6 -34 -55 c-148 -238 -20 -514 275 -596 52 -15
103 -19 247 -19 174 0 183 1 204 22 26 25 28 68 5 91 -14 15 -38 17 -174 14
-177 -4 -260 9 -345 56 -90 49 -155 167 -141 258 10 66 16 70 65 41 76 -44
161 -67 248 -67 139 0 239 50 285 142 44 87 32 171 -34 236 -42 42 -78 60
-143 73 -56 10 -105 3 -311 -41 -113 -24 -261 -28 -324 -9 -23 6 -55 25 -72
42 -25 25 -30 37 -30 77 0 26 7 67 15 90 17 47 111 194 143 224 12 10 99 44
194 76 416 138 742 299 995 492 205 155 287 293 234 395 -49 97 -166 115 -343
50 -231 -84 -556 -304 -845 -573 -79 -73 -103 -91 -103 -75 0 31 -66 90 -139
125 -61 28 -76 31 -189 34 -121 4 -123 4 -213 -32 -247 -99 -435 -101 -485 -5
-30 59 2 159 90 277 49 67 57 99 28 125 -31 28 -68 20 -132 -27 -97 -71 -230
-105 -305 -76 -78 30 -99 118 -47 201 93 146 297 220 433 157 84 -39 130 -93
144 -171 12 -61 62 -84 106 -48 19 15 23 28 22 62 -3 58 -54 158 -104 204 -76
68 -211 113 -309 102 -32 -4 -50 -1 -62 10 -30 27 -64 18 -142 -40 -154 -112
-322 -179 -408 -163 -53 10 -88 47 -88 93 0 46 44 141 123 266 94 148 109 238
54 311 -38 49 -89 71 -167 70 -90 0 -191 -49 -387 -186 -84 -58 -153 -104
-153 -101 0 4 36 68 80 143 90 154 110 203 110 269 0 97 -77 157 -190 149 -78
-6 -155 -45 -376 -193 l-181 -122 90 151 c49 83 110 191 134 241 40 80 44 96
40 144 -8 101 -85 136 -199 92z m3993 -1517 c11 -13 9 -23 -11 -61 -63 -119
-381 -339 -693 -481 -127 -57 -407 -165 -414 -159 -5 6 206 201 326 300 321
268 730 475 792 401z m-1383 -535 c24 -10 60 -32 80 -48 21 -16 48 -31 61 -33
21 -3 17 -9 -46 -80 -60 -68 -75 -79 -130 -97 -96 -31 -206 -51 -281 -51 -79
0 -114 19 -138 76 -12 29 -12 39 2 74 29 73 151 158 257 180 56 12 142 3 195
-21z m692 -908 c59 -42 48 -107 -24 -147 -76 -43 -181 -38 -284 12 l-54 26 27
28 c85 89 263 132 335 81z"/>
<path d="M18795 12038 c-381 -199 -685 -482 -820 -763 -94 -194 -125 -332
-132 -592 -8 -272 22 -517 101 -848 19 -77 33 -141 31 -143 -1 -2 -45 20 -96
49 -272 151 -872 429 -927 429 -37 0 -88 -33 -107 -69 -20 -40 -19 -79 4 -117
20 -33 26 -36 251 -135 746 -327 1544 -825 2197 -1372 53 -43 112 -86 131 -94
78 -32 151 17 160 107 5 51 4 51 -49 103 -110 107 -523 426 -792 612 -70 48
-126 89 -124 91 1 2 71 -6 154 -16 533 -69 927 -34 1220 106 419 200 671 644
794 1394 14 85 29 145 40 162 25 35 24 88 -1 116 -43 46 -236 67 -620 67 -250
-1 -301 -3 -410 -23 -184 -33 -328 -78 -467 -147 -68 -33 -123 -55 -123 -49 0
6 5 59 11 119 8 78 8 139 0 219 -23 226 -69 379 -189 619 -66 133 -91 173
-115 188 -42 25 -52 24 -122 -13z m93 -305 c106 -225 146 -388 146 -603 1
-151 -8 -206 -51 -345 -23 -71 -33 -88 -100 -160 -139 -149 -261 -325 -396
-570 -59 -108 -78 -132 -187 -240 l-120 -120 15 50 c365 1219 631 2095 636
2095 3 0 29 -48 57 -107z m1695 -809 c20 -4 37 -11 37 -18 0 -10 -549 -362
-1742 -1118 -224 -142 -414 -261 -423 -264 -9 -4 7 41 44 122 394 867 777
1209 1436 1284 82 9 580 4 648 -6z"/>
<path d="M10374 8406 c-51 -23 -100 -73 -125 -128 l-24 -53 -3 -1455 c-3
-1558 -1 -1666 44 -1836 83 -322 293 -550 559 -609 108 -24 271 -17 343 14 67
30 135 104 152 166 26 93 -9 227 -74 282 -51 43 -87 53 -198 53 -152 1 -196
26 -258 149 -51 101 -50 66 -50 1677 0 965 -4 1521 -10 1555 -12 65 -51 123
-109 164 -38 27 -51 30 -129 33 -58 1 -97 -2 -118 -12z"/>
<path d="M9090 8331 c-90 -29 -184 -113 -223 -199 -17 -37 -21 -66 -21 -137 0
-78 3 -98 28 -152 33 -73 103 -144 174 -176 71 -33 188 -31 262 4 69 33 133
97 168 169 24 48 27 67 27 150 0 82 -4 103 -27 152 -32 69 -97 136 -163 168
-52 25 -177 37 -225 21z"/>
<path d="M7142 8084 c-56 -28 -90 -65 -119 -130 -16 -35 -18 -81 -21 -441 l-3
-403 -113 0 c-62 0 -137 -5 -167 -10 -109 -21 -177 -100 -187 -215 -4 -56 -1
-72 23 -120 51 -106 122 -135 325 -135 l120 0 0 -647 c0 -366 4 -696 10 -758
38 -407 258 -725 594 -859 109 -44 209 -58 370 -54 121 3 147 6 182 25 57 30
119 103 134 158 31 111 -13 249 -99 310 -42 29 -45 30 -199 36 -144 5 -162 8
-219 33 -73 33 -158 116 -197 194 -55 109 -56 118 -56 869 l0 691 253 4 c236
3 255 4 293 25 175 93 175 333 0 426 -38 20 -56 22 -293 25 l-252 4 -3 401
c-4 448 -2 437 -75 517 -51 58 -102 80 -184 80 -50 0 -77 -6 -117 -26z"/>
<path d="M15390 8094 c-45 -20 -96 -69 -123 -119 -21 -39 -22 -52 -25 -451
l-3 -412 -147 -4 c-162 -4 -211 -18 -264 -74 -86 -92 -81 -252 9 -335 59 -56
86 -63 251 -67 l152 -4 0 -697 c0 -407 5 -725 10 -766 28 -191 110 -389 219
-525 111 -139 277 -251 446 -301 97 -30 357 -39 436 -16 68 20 130 72 159 134
46 96 24 241 -48 316 -51 54 -75 61 -244 68 -150 6 -160 7 -222 38 -77 38
-143 106 -186 194 -59 120 -60 136 -60 880 l0 677 225 0 c124 0 247 5 275 11
104 22 171 103 178 215 8 121 -65 219 -179 243 -27 6 -151 11 -274 11 l-225 0
0 388 c0 430 -3 455 -62 526 -63 77 -205 110 -298 70z"/>
<path d="M5675 7230 c-202 -31 -423 -143 -582 -293 l-53 -50 0 61 c0 153 -80
245 -223 259 -90 8 -163 -15 -216 -68 -76 -76 -72 9 -69 -1405 l3 -1259 22
-42 c44 -82 120 -123 228 -123 77 0 127 16 174 56 80 69 75 10 81 994 l5 875
27 74 c114 313 462 482 883 430 61 -8 153 -14 206 -14 88 0 99 2 138 28 50 33
80 91 88 173 8 72 -15 131 -72 183 -94 87 -211 121 -430 126 -82 2 -177 0
-210 -5z"/>
<path d="M2227 7215 c-306 -50 -568 -189 -777 -413 -291 -310 -430 -732 -392
-1185 14 -169 32 -257 77 -394 103 -310 300 -569 565 -742 198 -129 415 -191
669 -191 150 0 235 11 356 46 182 52 373 164 514 302 l79 77 4 -106 c4 -93 8
-114 34 -165 36 -73 93 -118 170 -135 152 -34 289 60 314 216 13 80 13 1163 0
1335 -31 409 -186 744 -464 1007 -176 167 -374 273 -616 330 -135 31 -397 40
-533 18z m461 -504 c354 -103 601 -424 644 -837 34 -324 -71 -640 -280 -849
-150 -149 -312 -225 -522 -245 -456 -43 -844 256 -952 733 -29 128 -29 353 -1
487 82 388 355 661 733 734 14 2 88 3 165 1 106 -2 158 -8 213 -24z"/>
<path d="M12880 7224 c-14 -2 -59 -9 -100 -15 -308 -45 -634 -244 -842 -515
-268 -348 -367 -828 -268 -1301 118 -564 541 -998 1060 -1087 120 -20 330 -21
446 -1 244 43 471 162 655 344 l67 66 5 -109 c7 -126 33 -195 95 -246 40 -33
116 -60 167 -60 98 0 196 63 236 152 l24 53 3 620 c3 654 -3 804 -40 974 -58
269 -187 515 -371 708 -201 209 -434 340 -712 398 -76 16 -367 29 -425 19z
m388 -513 c199 -58 380 -198 495 -383 182 -292 207 -709 61 -1026 -166 -362
-503 -560 -887 -521 -367 37 -651 288 -762 673 -45 158 -51 385 -15 552 83
379 360 659 718 724 85 16 309 4 390 -19z"/>
<path d="M18150 7224 c-14 -2 -59 -9 -100 -15 -155 -23 -344 -98 -495 -197
-100 -65 -281 -249 -349 -355 -148 -227 -223 -457 -247 -762 -18 -221 10 -468
76 -669 107 -327 356 -623 653 -778 108 -57 206 -92 342 -125 147 -34 403 -43
551 -18 328 54 720 257 775 401 46 119 -34 272 -161 309 -89 26 -161 6 -263
-72 -122 -94 -341 -171 -513 -180 -386 -21 -714 169 -884 512 -43 87 -95 240
-95 279 0 3 425 6 945 6 635 0 960 4 994 11 63 13 107 43 146 97 29 42 30 48
33 166 9 314 -81 636 -247 883 -66 98 -214 248 -306 310 -204 137 -443 205
-711 202 -66 -1 -130 -3 -144 -5z m355 -489 c211 -55 377 -196 481 -410 38
-78 94 -258 94 -301 0 -12 -131 -14 -815 -14 -622 0 -815 3 -815 12 0 31 46
172 81 246 51 112 112 194 205 281 118 110 282 183 464 205 65 8 244 -3 305
-19z"/>
<path d="M9100 7201 c-77 -24 -148 -90 -168 -160 -9 -28 -12 -368 -12 -1287
l0 -1249 24 -51 c27 -59 90 -116 145 -132 57 -18 150 -14 196 7 51 23 118 96
136 147 12 32 14 250 14 1284 0 1416 7 1300 -85 1383 -66 60 -167 83 -250 58z"/>
</g>
</svg>
